G04 #@! TF.GenerationSoftware,KiCad,Pcbnew,5.1.10-88a1d61d58~88~ubuntu18.04.1*
G04 #@! TF.CreationDate,2021-07-26T22:38:52+03:00*
G04 #@! TF.ProjectId,pcb,7063622e-6b69-4636-9164-5f7063625858,rev?*
G04 #@! TF.SameCoordinates,Original*
G04 #@! TF.FileFunction,Legend,Bot*
G04 #@! TF.FilePolarity,Positive*
%FSLAX46Y46*%
G04 Gerber Fmt 4.6, Leading zero omitted, Abs format (unit mm)*
G04 Created by KiCad (PCBNEW 5.1.10-88a1d61d58~88~ubuntu18.04.1) date 2021-07-26 22:38:52*
%MOMM*%
%LPD*%
G01*
G04 APERTURE LIST*
%ADD10C,0.150000*%
%ADD11C,0.120000*%
G04 APERTURE END LIST*
D10*
X104458000Y40640000D02*
X104458000Y41021000D01*
X113348000Y40640000D02*
X104458000Y40640000D01*
X115888000Y43180000D02*
X115888000Y43561000D01*
X115507000Y46990000D02*
X115888000Y46990000D01*
X112002162Y46990000D02*
X113729000Y46990000D01*
X104458000Y45085000D02*
X109538000Y45085000D01*
X104458000Y44069000D02*
X104458000Y45085000D01*
X115888000Y46609000D02*
X115888000Y46990000D01*
X112002162Y47008960D02*
G75*
G02*
X109538000Y45085000I-2464162J616040D01*
G01*
X115888000Y43180000D02*
G75*
G02*
X113348000Y40640000I-2540000J0D01*
G01*
X85407500Y16827500D02*
X85407500Y17208500D01*
X94297500Y16827500D02*
X85407500Y16827500D01*
X96837500Y19367500D02*
X96837500Y19748500D01*
X96456500Y23177500D02*
X96837500Y23177500D01*
X92951662Y23177500D02*
X94678500Y23177500D01*
X85407500Y21272500D02*
X90487500Y21272500D01*
X85407500Y20256500D02*
X85407500Y21272500D01*
X96837500Y22796500D02*
X96837500Y23177500D01*
X92951662Y23196460D02*
G75*
G02*
X90487500Y21272500I-2464162J616040D01*
G01*
X96837500Y19367500D02*
G75*
G02*
X94297500Y16827500I-2540000J0D01*
G01*
X85407500Y35877500D02*
X85407500Y36258500D01*
X94297500Y35877500D02*
X85407500Y35877500D01*
X96837500Y38417500D02*
X96837500Y38798500D01*
X96456500Y42227500D02*
X96837500Y42227500D01*
X92951662Y42227500D02*
X94678500Y42227500D01*
X85407500Y40322500D02*
X90487500Y40322500D01*
X85407500Y39306500D02*
X85407500Y40322500D01*
X96837500Y41846500D02*
X96837500Y42227500D01*
X92951662Y42246460D02*
G75*
G02*
X90487500Y40322500I-2464162J616040D01*
G01*
X96837500Y38417500D02*
G75*
G02*
X94297500Y35877500I-2540000J0D01*
G01*
X85407500Y54927500D02*
X85407500Y55308500D01*
X94297500Y54927500D02*
X85407500Y54927500D01*
X96837500Y57467500D02*
X96837500Y57848500D01*
X96456500Y61277500D02*
X96837500Y61277500D01*
X92951662Y61277500D02*
X94678500Y61277500D01*
X85407500Y59372500D02*
X90487500Y59372500D01*
X85407500Y58356500D02*
X85407500Y59372500D01*
X96837500Y60896500D02*
X96837500Y61277500D01*
X92951662Y61296460D02*
G75*
G02*
X90487500Y59372500I-2464162J616040D01*
G01*
X96837500Y57467500D02*
G75*
G02*
X94297500Y54927500I-2540000J0D01*
G01*
X104458000Y21590000D02*
X104458000Y21971000D01*
X113348000Y21590000D02*
X104458000Y21590000D01*
X115888000Y24130000D02*
X115888000Y24511000D01*
X115507000Y27940000D02*
X115888000Y27940000D01*
X112002162Y27940000D02*
X113729000Y27940000D01*
X104458000Y26035000D02*
X109538000Y26035000D01*
X104458000Y25019000D02*
X104458000Y26035000D01*
X115888000Y27559000D02*
X115888000Y27940000D01*
X112002162Y27958960D02*
G75*
G02*
X109538000Y26035000I-2464162J616040D01*
G01*
X115888000Y24130000D02*
G75*
G02*
X113348000Y21590000I-2540000J0D01*
G01*
X66357500Y26352500D02*
X66357500Y26733500D01*
X75247500Y26352500D02*
X66357500Y26352500D01*
X77787500Y28892500D02*
X77787500Y29273500D01*
X77406500Y32702500D02*
X77787500Y32702500D01*
X73901662Y32702500D02*
X75628500Y32702500D01*
X66357500Y30797500D02*
X71437500Y30797500D01*
X66357500Y29781500D02*
X66357500Y30797500D01*
X77787500Y32321500D02*
X77787500Y32702500D01*
X73901662Y32721460D02*
G75*
G02*
X71437500Y30797500I-2464162J616040D01*
G01*
X77787500Y28892500D02*
G75*
G02*
X75247500Y26352500I-2540000J0D01*
G01*
X66357500Y45402500D02*
X66357500Y45783500D01*
X75247500Y45402500D02*
X66357500Y45402500D01*
X77787500Y47942500D02*
X77787500Y48323500D01*
X77406500Y51752500D02*
X77787500Y51752500D01*
X73901662Y51752500D02*
X75628500Y51752500D01*
X66357500Y49847500D02*
X71437500Y49847500D01*
X66357500Y48831500D02*
X66357500Y49847500D01*
X77787500Y51371500D02*
X77787500Y51752500D01*
X73901662Y51771460D02*
G75*
G02*
X71437500Y49847500I-2464162J616040D01*
G01*
X77787500Y47942500D02*
G75*
G02*
X75247500Y45402500I-2540000J0D01*
G01*
X66357500Y64452500D02*
X66357500Y64833500D01*
X75247500Y64452500D02*
X66357500Y64452500D01*
X77787500Y66992500D02*
X77787500Y67373500D01*
X77406500Y70802500D02*
X77787500Y70802500D01*
X73901662Y70802500D02*
X75628500Y70802500D01*
X66357500Y68897500D02*
X71437500Y68897500D01*
X66357500Y67881500D02*
X66357500Y68897500D01*
X77787500Y70421500D02*
X77787500Y70802500D01*
X73901662Y70821460D02*
G75*
G02*
X71437500Y68897500I-2464162J616040D01*
G01*
X77787500Y66992500D02*
G75*
G02*
X75247500Y64452500I-2540000J0D01*
G01*
X33020000Y2540000D02*
X33020000Y2921000D01*
X41910000Y2540000D02*
X33020000Y2540000D01*
X44450000Y5080000D02*
X44450000Y5461000D01*
X44069000Y8890000D02*
X44450000Y8890000D01*
X40564162Y8890000D02*
X42291000Y8890000D01*
X33020000Y6985000D02*
X38100000Y6985000D01*
X33020000Y5969000D02*
X33020000Y6985000D01*
X44450000Y8509000D02*
X44450000Y8890000D01*
X40564162Y8908960D02*
G75*
G02*
X38100000Y6985000I-2464162J616040D01*
G01*
X44450000Y5080000D02*
G75*
G02*
X41910000Y2540000I-2540000J0D01*
G01*
X47307500Y31115000D02*
X47307500Y31496000D01*
X56197500Y31115000D02*
X47307500Y31115000D01*
X58737500Y33655000D02*
X58737500Y34036000D01*
X58356500Y37465000D02*
X58737500Y37465000D01*
X54851662Y37465000D02*
X56578500Y37465000D01*
X47307500Y35560000D02*
X52387500Y35560000D01*
X47307500Y34544000D02*
X47307500Y35560000D01*
X58737500Y37084000D02*
X58737500Y37465000D01*
X54851662Y37483960D02*
G75*
G02*
X52387500Y35560000I-2464162J616040D01*
G01*
X58737500Y33655000D02*
G75*
G02*
X56197500Y31115000I-2540000J0D01*
G01*
X47307500Y50165000D02*
X47307500Y50546000D01*
X56197500Y50165000D02*
X47307500Y50165000D01*
X58737500Y52705000D02*
X58737500Y53086000D01*
X58356500Y56515000D02*
X58737500Y56515000D01*
X54851662Y56515000D02*
X56578500Y56515000D01*
X47307500Y54610000D02*
X52387500Y54610000D01*
X47307500Y53594000D02*
X47307500Y54610000D01*
X58737500Y56134000D02*
X58737500Y56515000D01*
X54851662Y56533960D02*
G75*
G02*
X52387500Y54610000I-2464162J616040D01*
G01*
X58737500Y52705000D02*
G75*
G02*
X56197500Y50165000I-2540000J0D01*
G01*
X47307500Y69215000D02*
X47307500Y69596000D01*
X56197500Y69215000D02*
X47307500Y69215000D01*
X58737500Y71755000D02*
X58737500Y72136000D01*
X58356500Y75565000D02*
X58737500Y75565000D01*
X54851662Y75565000D02*
X56578500Y75565000D01*
X47307500Y73660000D02*
X52387500Y73660000D01*
X47307500Y72644000D02*
X47307500Y73660000D01*
X58737500Y75184000D02*
X58737500Y75565000D01*
X54851662Y75583960D02*
G75*
G02*
X52387500Y73660000I-2464162J616040D01*
G01*
X58737500Y71755000D02*
G75*
G02*
X56197500Y69215000I-2540000J0D01*
G01*
X13970000Y-2222500D02*
X13970000Y-1841500D01*
X22860000Y-2222500D02*
X13970000Y-2222500D01*
X25400000Y317500D02*
X25400000Y698500D01*
X25019000Y4127500D02*
X25400000Y4127500D01*
X21514162Y4127500D02*
X23241000Y4127500D01*
X13970000Y2222500D02*
X19050000Y2222500D01*
X13970000Y1206500D02*
X13970000Y2222500D01*
X25400000Y3746500D02*
X25400000Y4127500D01*
X21514162Y4146460D02*
G75*
G02*
X19050000Y2222500I-2464162J616040D01*
G01*
X25400000Y317500D02*
G75*
G02*
X22860000Y-2222500I-2540000J0D01*
G01*
X28257500Y26352500D02*
X28257500Y26733500D01*
X37147500Y26352500D02*
X28257500Y26352500D01*
X39687500Y28892500D02*
X39687500Y29273500D01*
X39306500Y32702500D02*
X39687500Y32702500D01*
X35801662Y32702500D02*
X37528500Y32702500D01*
X28257500Y30797500D02*
X33337500Y30797500D01*
X28257500Y29781500D02*
X28257500Y30797500D01*
X39687500Y32321500D02*
X39687500Y32702500D01*
X35801662Y32721460D02*
G75*
G02*
X33337500Y30797500I-2464162J616040D01*
G01*
X39687500Y28892500D02*
G75*
G02*
X37147500Y26352500I-2540000J0D01*
G01*
X28257500Y45402500D02*
X28257500Y45783500D01*
X37147500Y45402500D02*
X28257500Y45402500D01*
X39687500Y47942500D02*
X39687500Y48323500D01*
X39306500Y51752500D02*
X39687500Y51752500D01*
X35801662Y51752500D02*
X37528500Y51752500D01*
X28257500Y49847500D02*
X33337500Y49847500D01*
X28257500Y48831500D02*
X28257500Y49847500D01*
X39687500Y51371500D02*
X39687500Y51752500D01*
X35801662Y51771460D02*
G75*
G02*
X33337500Y49847500I-2464162J616040D01*
G01*
X39687500Y47942500D02*
G75*
G02*
X37147500Y45402500I-2540000J0D01*
G01*
X28257500Y64452500D02*
X28257500Y64833500D01*
X37147500Y64452500D02*
X28257500Y64452500D01*
X39687500Y66992500D02*
X39687500Y67373500D01*
X39306500Y70802500D02*
X39687500Y70802500D01*
X35801662Y70802500D02*
X37528500Y70802500D01*
X28257500Y68897500D02*
X33337500Y68897500D01*
X28257500Y67881500D02*
X28257500Y68897500D01*
X39687500Y70421500D02*
X39687500Y70802500D01*
X35801662Y70821460D02*
G75*
G02*
X33337500Y68897500I-2464162J616040D01*
G01*
X39687500Y66992500D02*
G75*
G02*
X37147500Y64452500I-2540000J0D01*
G01*
X-5080000Y-6985000D02*
X-5080000Y-6604000D01*
X3810000Y-6985000D02*
X-5080000Y-6985000D01*
X6350000Y-4445000D02*
X6350000Y-4064000D01*
X5969000Y-635000D02*
X6350000Y-635000D01*
X2464162Y-635000D02*
X4191000Y-635000D01*
X-5080000Y-2540000D02*
X0Y-2540000D01*
X-5080000Y-3556000D02*
X-5080000Y-2540000D01*
X6350000Y-1016000D02*
X6350000Y-635000D01*
X2464162Y-616040D02*
G75*
G02*
X0Y-2540000I-2464162J616040D01*
G01*
X6350000Y-4445000D02*
G75*
G02*
X3810000Y-6985000I-2540000J0D01*
G01*
X9207500Y21590000D02*
X9207500Y21971000D01*
X18097500Y21590000D02*
X9207500Y21590000D01*
X20637500Y24130000D02*
X20637500Y24511000D01*
X20256500Y27940000D02*
X20637500Y27940000D01*
X16751662Y27940000D02*
X18478500Y27940000D01*
X9207500Y26035000D02*
X14287500Y26035000D01*
X9207500Y25019000D02*
X9207500Y26035000D01*
X20637500Y27559000D02*
X20637500Y27940000D01*
X16751662Y27958960D02*
G75*
G02*
X14287500Y26035000I-2464162J616040D01*
G01*
X20637500Y24130000D02*
G75*
G02*
X18097500Y21590000I-2540000J0D01*
G01*
X9207500Y40640000D02*
X9207500Y41021000D01*
X18097500Y40640000D02*
X9207500Y40640000D01*
X20637500Y43180000D02*
X20637500Y43561000D01*
X20256500Y46990000D02*
X20637500Y46990000D01*
X16751662Y46990000D02*
X18478500Y46990000D01*
X9207500Y45085000D02*
X14287500Y45085000D01*
X9207500Y44069000D02*
X9207500Y45085000D01*
X20637500Y46609000D02*
X20637500Y46990000D01*
X16751662Y47008960D02*
G75*
G02*
X14287500Y45085000I-2464162J616040D01*
G01*
X20637500Y43180000D02*
G75*
G02*
X18097500Y40640000I-2540000J0D01*
G01*
X9207500Y59690000D02*
X9207500Y60071000D01*
X18097500Y59690000D02*
X9207500Y59690000D01*
X20637500Y62230000D02*
X20637500Y62611000D01*
X20256500Y66040000D02*
X20637500Y66040000D01*
X16751662Y66040000D02*
X18478500Y66040000D01*
X9207500Y64135000D02*
X14287500Y64135000D01*
X9207500Y63119000D02*
X9207500Y64135000D01*
X20637500Y65659000D02*
X20637500Y66040000D01*
X16751662Y66058960D02*
G75*
G02*
X14287500Y64135000I-2464162J616040D01*
G01*
X20637500Y62230000D02*
G75*
G02*
X18097500Y59690000I-2540000J0D01*
G01*
X116538000Y40625000D02*
X116538000Y41625000D01*
X115538000Y54625000D02*
X116538000Y54625000D01*
X116538000Y40625000D02*
X115538000Y40625000D01*
X116538000Y53625000D02*
X116538000Y54625000D01*
X102538000Y54625000D02*
X102538000Y53625000D01*
X103538000Y40625000D02*
X102538000Y40625000D01*
X102538000Y54625000D02*
X103538000Y54625000D01*
X102538000Y41625000D02*
X102538000Y40625000D01*
X97487500Y16812500D02*
X97487500Y17812500D01*
X96487500Y30812500D02*
X97487500Y30812500D01*
X97487500Y16812500D02*
X96487500Y16812500D01*
X97487500Y29812500D02*
X97487500Y30812500D01*
X83487500Y30812500D02*
X83487500Y29812500D01*
X84487500Y16812500D02*
X83487500Y16812500D01*
X83487500Y30812500D02*
X84487500Y30812500D01*
X83487500Y17812500D02*
X83487500Y16812500D01*
X97487500Y35862500D02*
X97487500Y36862500D01*
X96487500Y49862500D02*
X97487500Y49862500D01*
X97487500Y35862500D02*
X96487500Y35862500D01*
X97487500Y48862500D02*
X97487500Y49862500D01*
X83487500Y49862500D02*
X83487500Y48862500D01*
X84487500Y35862500D02*
X83487500Y35862500D01*
X83487500Y49862500D02*
X84487500Y49862500D01*
X83487500Y36862500D02*
X83487500Y35862500D01*
X97487500Y54912500D02*
X97487500Y55912500D01*
X96487500Y68912500D02*
X97487500Y68912500D01*
X97487500Y54912500D02*
X96487500Y54912500D01*
X97487500Y67912500D02*
X97487500Y68912500D01*
X83487500Y68912500D02*
X83487500Y67912500D01*
X84487500Y54912500D02*
X83487500Y54912500D01*
X83487500Y68912500D02*
X84487500Y68912500D01*
X83487500Y55912500D02*
X83487500Y54912500D01*
X116538000Y21575000D02*
X116538000Y22575000D01*
X115538000Y35575000D02*
X116538000Y35575000D01*
X116538000Y21575000D02*
X115538000Y21575000D01*
X116538000Y34575000D02*
X116538000Y35575000D01*
X102538000Y35575000D02*
X102538000Y34575000D01*
X103538000Y21575000D02*
X102538000Y21575000D01*
X102538000Y35575000D02*
X103538000Y35575000D01*
X102538000Y22575000D02*
X102538000Y21575000D01*
X78437500Y26337500D02*
X78437500Y27337500D01*
X77437500Y40337500D02*
X78437500Y40337500D01*
X78437500Y26337500D02*
X77437500Y26337500D01*
X78437500Y39337500D02*
X78437500Y40337500D01*
X64437500Y40337500D02*
X64437500Y39337500D01*
X65437500Y26337500D02*
X64437500Y26337500D01*
X64437500Y40337500D02*
X65437500Y40337500D01*
X64437500Y27337500D02*
X64437500Y26337500D01*
X78437500Y45387500D02*
X78437500Y46387500D01*
X77437500Y59387500D02*
X78437500Y59387500D01*
X78437500Y45387500D02*
X77437500Y45387500D01*
X78437500Y58387500D02*
X78437500Y59387500D01*
X64437500Y59387500D02*
X64437500Y58387500D01*
X65437500Y45387500D02*
X64437500Y45387500D01*
X64437500Y59387500D02*
X65437500Y59387500D01*
X64437500Y46387500D02*
X64437500Y45387500D01*
X78437500Y64437500D02*
X78437500Y65437500D01*
X77437500Y78437500D02*
X78437500Y78437500D01*
X78437500Y64437500D02*
X77437500Y64437500D01*
X78437500Y77437500D02*
X78437500Y78437500D01*
X64437500Y78437500D02*
X64437500Y77437500D01*
X65437500Y64437500D02*
X64437500Y64437500D01*
X64437500Y78437500D02*
X65437500Y78437500D01*
X64437500Y65437500D02*
X64437500Y64437500D01*
X45100000Y2525000D02*
X45100000Y3525000D01*
X44100000Y16525000D02*
X45100000Y16525000D01*
X45100000Y2525000D02*
X44100000Y2525000D01*
X45100000Y15525000D02*
X45100000Y16525000D01*
X31100000Y16525000D02*
X31100000Y15525000D01*
X32100000Y2525000D02*
X31100000Y2525000D01*
X31100000Y16525000D02*
X32100000Y16525000D01*
X31100000Y3525000D02*
X31100000Y2525000D01*
X59387500Y31100000D02*
X59387500Y32100000D01*
X58387500Y45100000D02*
X59387500Y45100000D01*
X59387500Y31100000D02*
X58387500Y31100000D01*
X59387500Y44100000D02*
X59387500Y45100000D01*
X45387500Y45100000D02*
X45387500Y44100000D01*
X46387500Y31100000D02*
X45387500Y31100000D01*
X45387500Y45100000D02*
X46387500Y45100000D01*
X45387500Y32100000D02*
X45387500Y31100000D01*
X59387500Y50150000D02*
X59387500Y51150000D01*
X58387500Y64150000D02*
X59387500Y64150000D01*
X59387500Y50150000D02*
X58387500Y50150000D01*
X59387500Y63150000D02*
X59387500Y64150000D01*
X45387500Y64150000D02*
X45387500Y63150000D01*
X46387500Y50150000D02*
X45387500Y50150000D01*
X45387500Y64150000D02*
X46387500Y64150000D01*
X45387500Y51150000D02*
X45387500Y50150000D01*
X59387500Y69200000D02*
X59387500Y70200000D01*
X58387500Y83200000D02*
X59387500Y83200000D01*
X59387500Y69200000D02*
X58387500Y69200000D01*
X59387500Y82200000D02*
X59387500Y83200000D01*
X45387500Y83200000D02*
X45387500Y82200000D01*
X46387500Y69200000D02*
X45387500Y69200000D01*
X45387500Y83200000D02*
X46387500Y83200000D01*
X45387500Y70200000D02*
X45387500Y69200000D01*
X26050000Y-2237500D02*
X26050000Y-1237500D01*
X25050000Y11762500D02*
X26050000Y11762500D01*
X26050000Y-2237500D02*
X25050000Y-2237500D01*
X26050000Y10762500D02*
X26050000Y11762500D01*
X12050000Y11762500D02*
X12050000Y10762500D01*
X13050000Y-2237500D02*
X12050000Y-2237500D01*
X12050000Y11762500D02*
X13050000Y11762500D01*
X12050000Y-1237500D02*
X12050000Y-2237500D01*
X40337500Y26337500D02*
X40337500Y27337500D01*
X39337500Y40337500D02*
X40337500Y40337500D01*
X40337500Y26337500D02*
X39337500Y26337500D01*
X40337500Y39337500D02*
X40337500Y40337500D01*
X26337500Y40337500D02*
X26337500Y39337500D01*
X27337500Y26337500D02*
X26337500Y26337500D01*
X26337500Y40337500D02*
X27337500Y40337500D01*
X26337500Y27337500D02*
X26337500Y26337500D01*
X40337500Y45387500D02*
X40337500Y46387500D01*
X39337500Y59387500D02*
X40337500Y59387500D01*
X40337500Y45387500D02*
X39337500Y45387500D01*
X40337500Y58387500D02*
X40337500Y59387500D01*
X26337500Y59387500D02*
X26337500Y58387500D01*
X27337500Y45387500D02*
X26337500Y45387500D01*
X26337500Y59387500D02*
X27337500Y59387500D01*
X26337500Y46387500D02*
X26337500Y45387500D01*
X40337500Y64437500D02*
X40337500Y65437500D01*
X39337500Y78437500D02*
X40337500Y78437500D01*
X40337500Y64437500D02*
X39337500Y64437500D01*
X40337500Y77437500D02*
X40337500Y78437500D01*
X26337500Y78437500D02*
X26337500Y77437500D01*
X27337500Y64437500D02*
X26337500Y64437500D01*
X26337500Y78437500D02*
X27337500Y78437500D01*
X26337500Y65437500D02*
X26337500Y64437500D01*
X7000000Y-7000000D02*
X7000000Y-6000000D01*
X6000000Y7000000D02*
X7000000Y7000000D01*
X7000000Y-7000000D02*
X6000000Y-7000000D01*
X7000000Y6000000D02*
X7000000Y7000000D01*
X-7000000Y7000000D02*
X-7000000Y6000000D01*
X-6000000Y-7000000D02*
X-7000000Y-7000000D01*
X-7000000Y7000000D02*
X-6000000Y7000000D01*
X-7000000Y-6000000D02*
X-7000000Y-7000000D01*
X21287500Y21575000D02*
X21287500Y22575000D01*
X20287500Y35575000D02*
X21287500Y35575000D01*
X21287500Y21575000D02*
X20287500Y21575000D01*
X21287500Y34575000D02*
X21287500Y35575000D01*
X7287500Y35575000D02*
X7287500Y34575000D01*
X8287500Y21575000D02*
X7287500Y21575000D01*
X7287500Y35575000D02*
X8287500Y35575000D01*
X7287500Y22575000D02*
X7287500Y21575000D01*
X21287500Y40625000D02*
X21287500Y41625000D01*
X20287500Y54625000D02*
X21287500Y54625000D01*
X21287500Y40625000D02*
X20287500Y40625000D01*
X21287500Y53625000D02*
X21287500Y54625000D01*
X7287500Y54625000D02*
X7287500Y53625000D01*
X8287500Y40625000D02*
X7287500Y40625000D01*
X7287500Y54625000D02*
X8287500Y54625000D01*
X7287500Y41625000D02*
X7287500Y40625000D01*
X21287500Y59675000D02*
X21287500Y60675000D01*
X20287500Y73675000D02*
X21287500Y73675000D01*
X21287500Y59675000D02*
X20287500Y59675000D01*
X21287500Y72675000D02*
X21287500Y73675000D01*
X7287500Y73675000D02*
X7287500Y72675000D01*
X8287500Y59675000D02*
X7287500Y59675000D01*
X7287500Y73675000D02*
X8287500Y73675000D01*
X7287500Y60675000D02*
X7287500Y59675000D01*
D11*
X103775000Y53906200D02*
X103775000Y50006200D01*
X105775000Y53906200D02*
X105775000Y50006200D01*
X103775000Y53906200D02*
X105775000Y53906200D01*
X84725000Y30093800D02*
X84725000Y26193800D01*
X86725000Y30093800D02*
X86725000Y26193800D01*
X84725000Y30093800D02*
X86725000Y30093800D01*
X84725000Y49143800D02*
X84725000Y45243800D01*
X86725000Y49143800D02*
X86725000Y45243800D01*
X84725000Y49143800D02*
X86725000Y49143800D01*
X84725000Y68193800D02*
X84725000Y64293800D01*
X86725000Y68193800D02*
X86725000Y64293800D01*
X84725000Y68193800D02*
X86725000Y68193800D01*
X103775000Y34856200D02*
X103775000Y30956200D01*
X105775000Y34856200D02*
X105775000Y30956200D01*
X103775000Y34856200D02*
X105775000Y34856200D01*
X65675000Y39618800D02*
X65675000Y35718800D01*
X67675000Y39618800D02*
X67675000Y35718800D01*
X65675000Y39618800D02*
X67675000Y39618800D01*
X65675000Y58668800D02*
X65675000Y54768800D01*
X67675000Y58668800D02*
X67675000Y54768800D01*
X65675000Y58668800D02*
X67675000Y58668800D01*
X65675000Y77718800D02*
X65675000Y73818800D01*
X67675000Y77718800D02*
X67675000Y73818800D01*
X65675000Y77718800D02*
X67675000Y77718800D01*
X32337500Y15806200D02*
X32337500Y11906200D01*
X34337500Y15806200D02*
X34337500Y11906200D01*
X32337500Y15806200D02*
X34337500Y15806200D01*
X46625000Y44381200D02*
X46625000Y40481200D01*
X48625000Y44381200D02*
X48625000Y40481200D01*
X46625000Y44381200D02*
X48625000Y44381200D01*
X46625000Y63431200D02*
X46625000Y59531200D01*
X48625000Y63431200D02*
X48625000Y59531200D01*
X46625000Y63431200D02*
X48625000Y63431200D01*
X46625000Y82481200D02*
X46625000Y78581200D01*
X48625000Y82481200D02*
X48625000Y78581200D01*
X46625000Y82481200D02*
X48625000Y82481200D01*
X13287500Y11043800D02*
X13287500Y7143800D01*
X15287500Y11043800D02*
X15287500Y7143800D01*
X13287500Y11043800D02*
X15287500Y11043800D01*
X27575000Y39618800D02*
X27575000Y35718800D01*
X29575000Y39618800D02*
X29575000Y35718800D01*
X27575000Y39618800D02*
X29575000Y39618800D01*
X27575000Y58668800D02*
X27575000Y54768800D01*
X29575000Y58668800D02*
X29575000Y54768800D01*
X27575000Y58668800D02*
X29575000Y58668800D01*
X27575000Y77718800D02*
X27575000Y73818800D01*
X29575000Y77718800D02*
X29575000Y73818800D01*
X27575000Y77718800D02*
X29575000Y77718800D01*
X-5762500Y6281300D02*
X-5762500Y2381300D01*
X-3762500Y6281300D02*
X-3762500Y2381300D01*
X-5762500Y6281300D02*
X-3762500Y6281300D01*
X8525000Y34856200D02*
X8525000Y30956200D01*
X10525000Y34856200D02*
X10525000Y30956200D01*
X8525000Y34856200D02*
X10525000Y34856200D01*
X8525000Y53906200D02*
X8525000Y50006200D01*
X10525000Y53906200D02*
X10525000Y50006200D01*
X8525000Y53906200D02*
X10525000Y53906200D01*
X8525000Y72956200D02*
X8525000Y69056200D01*
X10525000Y72956200D02*
X10525000Y69056200D01*
X8525000Y72956200D02*
X10525000Y72956200D01*
D10*
X111347523Y38965238D02*
X111204666Y38917619D01*
X110966571Y38917619D01*
X110871333Y38965238D01*
X110823714Y39012857D01*
X110776095Y39108095D01*
X110776095Y39203333D01*
X110823714Y39298571D01*
X110871333Y39346190D01*
X110966571Y39393809D01*
X111157047Y39441428D01*
X111252285Y39489047D01*
X111299904Y39536666D01*
X111347523Y39631904D01*
X111347523Y39727142D01*
X111299904Y39822380D01*
X111252285Y39870000D01*
X111157047Y39917619D01*
X110918952Y39917619D01*
X110776095Y39870000D01*
X110442761Y39917619D02*
X110204666Y38917619D01*
X110014190Y39631904D01*
X109823714Y38917619D01*
X109585619Y39917619D01*
X108776095Y39584285D02*
X108776095Y38917619D01*
X109014190Y39965238D02*
X109252285Y39250952D01*
X108633238Y39250952D01*
X108061809Y39917619D02*
X107966571Y39917619D01*
X107871333Y39870000D01*
X107823714Y39822380D01*
X107776095Y39727142D01*
X107728476Y39536666D01*
X107728476Y39298571D01*
X107776095Y39108095D01*
X107823714Y39012857D01*
X107871333Y38965238D01*
X107966571Y38917619D01*
X108061809Y38917619D01*
X108157047Y38965238D01*
X108204666Y39012857D01*
X108252285Y39108095D01*
X108299904Y39298571D01*
X108299904Y39536666D01*
X108252285Y39727142D01*
X108204666Y39822380D01*
X108157047Y39870000D01*
X108061809Y39917619D01*
X92297023Y15152738D02*
X92154166Y15105119D01*
X91916071Y15105119D01*
X91820833Y15152738D01*
X91773214Y15200357D01*
X91725595Y15295595D01*
X91725595Y15390833D01*
X91773214Y15486071D01*
X91820833Y15533690D01*
X91916071Y15581309D01*
X92106547Y15628928D01*
X92201785Y15676547D01*
X92249404Y15724166D01*
X92297023Y15819404D01*
X92297023Y15914642D01*
X92249404Y16009880D01*
X92201785Y16057500D01*
X92106547Y16105119D01*
X91868452Y16105119D01*
X91725595Y16057500D01*
X91392261Y16105119D02*
X91154166Y15105119D01*
X90963690Y15819404D01*
X90773214Y15105119D01*
X90535119Y16105119D01*
X90249404Y16105119D02*
X89630357Y16105119D01*
X89963690Y15724166D01*
X89820833Y15724166D01*
X89725595Y15676547D01*
X89677976Y15628928D01*
X89630357Y15533690D01*
X89630357Y15295595D01*
X89677976Y15200357D01*
X89725595Y15152738D01*
X89820833Y15105119D01*
X90106547Y15105119D01*
X90201785Y15152738D01*
X90249404Y15200357D01*
X89154166Y15105119D02*
X88963690Y15105119D01*
X88868452Y15152738D01*
X88820833Y15200357D01*
X88725595Y15343214D01*
X88677976Y15533690D01*
X88677976Y15914642D01*
X88725595Y16009880D01*
X88773214Y16057500D01*
X88868452Y16105119D01*
X89058928Y16105119D01*
X89154166Y16057500D01*
X89201785Y16009880D01*
X89249404Y15914642D01*
X89249404Y15676547D01*
X89201785Y15581309D01*
X89154166Y15533690D01*
X89058928Y15486071D01*
X88868452Y15486071D01*
X88773214Y15533690D01*
X88725595Y15581309D01*
X88677976Y15676547D01*
X92297023Y34202738D02*
X92154166Y34155119D01*
X91916071Y34155119D01*
X91820833Y34202738D01*
X91773214Y34250357D01*
X91725595Y34345595D01*
X91725595Y34440833D01*
X91773214Y34536071D01*
X91820833Y34583690D01*
X91916071Y34631309D01*
X92106547Y34678928D01*
X92201785Y34726547D01*
X92249404Y34774166D01*
X92297023Y34869404D01*
X92297023Y34964642D01*
X92249404Y35059880D01*
X92201785Y35107500D01*
X92106547Y35155119D01*
X91868452Y35155119D01*
X91725595Y35107500D01*
X91392261Y35155119D02*
X91154166Y34155119D01*
X90963690Y34869404D01*
X90773214Y34155119D01*
X90535119Y35155119D01*
X90249404Y35155119D02*
X89630357Y35155119D01*
X89963690Y34774166D01*
X89820833Y34774166D01*
X89725595Y34726547D01*
X89677976Y34678928D01*
X89630357Y34583690D01*
X89630357Y34345595D01*
X89677976Y34250357D01*
X89725595Y34202738D01*
X89820833Y34155119D01*
X90106547Y34155119D01*
X90201785Y34202738D01*
X90249404Y34250357D01*
X89058928Y34726547D02*
X89154166Y34774166D01*
X89201785Y34821785D01*
X89249404Y34917023D01*
X89249404Y34964642D01*
X89201785Y35059880D01*
X89154166Y35107500D01*
X89058928Y35155119D01*
X88868452Y35155119D01*
X88773214Y35107500D01*
X88725595Y35059880D01*
X88677976Y34964642D01*
X88677976Y34917023D01*
X88725595Y34821785D01*
X88773214Y34774166D01*
X88868452Y34726547D01*
X89058928Y34726547D01*
X89154166Y34678928D01*
X89201785Y34631309D01*
X89249404Y34536071D01*
X89249404Y34345595D01*
X89201785Y34250357D01*
X89154166Y34202738D01*
X89058928Y34155119D01*
X88868452Y34155119D01*
X88773214Y34202738D01*
X88725595Y34250357D01*
X88677976Y34345595D01*
X88677976Y34536071D01*
X88725595Y34631309D01*
X88773214Y34678928D01*
X88868452Y34726547D01*
X92297023Y53252738D02*
X92154166Y53205119D01*
X91916071Y53205119D01*
X91820833Y53252738D01*
X91773214Y53300357D01*
X91725595Y53395595D01*
X91725595Y53490833D01*
X91773214Y53586071D01*
X91820833Y53633690D01*
X91916071Y53681309D01*
X92106547Y53728928D01*
X92201785Y53776547D01*
X92249404Y53824166D01*
X92297023Y53919404D01*
X92297023Y54014642D01*
X92249404Y54109880D01*
X92201785Y54157500D01*
X92106547Y54205119D01*
X91868452Y54205119D01*
X91725595Y54157500D01*
X91392261Y54205119D02*
X91154166Y53205119D01*
X90963690Y53919404D01*
X90773214Y53205119D01*
X90535119Y54205119D01*
X90249404Y54205119D02*
X89630357Y54205119D01*
X89963690Y53824166D01*
X89820833Y53824166D01*
X89725595Y53776547D01*
X89677976Y53728928D01*
X89630357Y53633690D01*
X89630357Y53395595D01*
X89677976Y53300357D01*
X89725595Y53252738D01*
X89820833Y53205119D01*
X90106547Y53205119D01*
X90201785Y53252738D01*
X90249404Y53300357D01*
X89297023Y54205119D02*
X88630357Y54205119D01*
X89058928Y53205119D01*
X111347523Y19915238D02*
X111204666Y19867619D01*
X110966571Y19867619D01*
X110871333Y19915238D01*
X110823714Y19962857D01*
X110776095Y20058095D01*
X110776095Y20153333D01*
X110823714Y20248571D01*
X110871333Y20296190D01*
X110966571Y20343809D01*
X111157047Y20391428D01*
X111252285Y20439047D01*
X111299904Y20486666D01*
X111347523Y20581904D01*
X111347523Y20677142D01*
X111299904Y20772380D01*
X111252285Y20820000D01*
X111157047Y20867619D01*
X110918952Y20867619D01*
X110776095Y20820000D01*
X110442761Y20867619D02*
X110204666Y19867619D01*
X110014190Y20581904D01*
X109823714Y19867619D01*
X109585619Y20867619D01*
X109299904Y20867619D02*
X108680857Y20867619D01*
X109014190Y20486666D01*
X108871333Y20486666D01*
X108776095Y20439047D01*
X108728476Y20391428D01*
X108680857Y20296190D01*
X108680857Y20058095D01*
X108728476Y19962857D01*
X108776095Y19915238D01*
X108871333Y19867619D01*
X109157047Y19867619D01*
X109252285Y19915238D01*
X109299904Y19962857D01*
X107823714Y20867619D02*
X108014190Y20867619D01*
X108109428Y20820000D01*
X108157047Y20772380D01*
X108252285Y20629523D01*
X108299904Y20439047D01*
X108299904Y20058095D01*
X108252285Y19962857D01*
X108204666Y19915238D01*
X108109428Y19867619D01*
X107918952Y19867619D01*
X107823714Y19915238D01*
X107776095Y19962857D01*
X107728476Y20058095D01*
X107728476Y20296190D01*
X107776095Y20391428D01*
X107823714Y20439047D01*
X107918952Y20486666D01*
X108109428Y20486666D01*
X108204666Y20439047D01*
X108252285Y20391428D01*
X108299904Y20296190D01*
X73247023Y24677738D02*
X73104166Y24630119D01*
X72866071Y24630119D01*
X72770833Y24677738D01*
X72723214Y24725357D01*
X72675595Y24820595D01*
X72675595Y24915833D01*
X72723214Y25011071D01*
X72770833Y25058690D01*
X72866071Y25106309D01*
X73056547Y25153928D01*
X73151785Y25201547D01*
X73199404Y25249166D01*
X73247023Y25344404D01*
X73247023Y25439642D01*
X73199404Y25534880D01*
X73151785Y25582500D01*
X73056547Y25630119D01*
X72818452Y25630119D01*
X72675595Y25582500D01*
X72342261Y25630119D02*
X72104166Y24630119D01*
X71913690Y25344404D01*
X71723214Y24630119D01*
X71485119Y25630119D01*
X71199404Y25630119D02*
X70580357Y25630119D01*
X70913690Y25249166D01*
X70770833Y25249166D01*
X70675595Y25201547D01*
X70627976Y25153928D01*
X70580357Y25058690D01*
X70580357Y24820595D01*
X70627976Y24725357D01*
X70675595Y24677738D01*
X70770833Y24630119D01*
X71056547Y24630119D01*
X71151785Y24677738D01*
X71199404Y24725357D01*
X69675595Y25630119D02*
X70151785Y25630119D01*
X70199404Y25153928D01*
X70151785Y25201547D01*
X70056547Y25249166D01*
X69818452Y25249166D01*
X69723214Y25201547D01*
X69675595Y25153928D01*
X69627976Y25058690D01*
X69627976Y24820595D01*
X69675595Y24725357D01*
X69723214Y24677738D01*
X69818452Y24630119D01*
X70056547Y24630119D01*
X70151785Y24677738D01*
X70199404Y24725357D01*
X73247023Y43727738D02*
X73104166Y43680119D01*
X72866071Y43680119D01*
X72770833Y43727738D01*
X72723214Y43775357D01*
X72675595Y43870595D01*
X72675595Y43965833D01*
X72723214Y44061071D01*
X72770833Y44108690D01*
X72866071Y44156309D01*
X73056547Y44203928D01*
X73151785Y44251547D01*
X73199404Y44299166D01*
X73247023Y44394404D01*
X73247023Y44489642D01*
X73199404Y44584880D01*
X73151785Y44632500D01*
X73056547Y44680119D01*
X72818452Y44680119D01*
X72675595Y44632500D01*
X72342261Y44680119D02*
X72104166Y43680119D01*
X71913690Y44394404D01*
X71723214Y43680119D01*
X71485119Y44680119D01*
X71199404Y44680119D02*
X70580357Y44680119D01*
X70913690Y44299166D01*
X70770833Y44299166D01*
X70675595Y44251547D01*
X70627976Y44203928D01*
X70580357Y44108690D01*
X70580357Y43870595D01*
X70627976Y43775357D01*
X70675595Y43727738D01*
X70770833Y43680119D01*
X71056547Y43680119D01*
X71151785Y43727738D01*
X71199404Y43775357D01*
X69723214Y44346785D02*
X69723214Y43680119D01*
X69961309Y44727738D02*
X70199404Y44013452D01*
X69580357Y44013452D01*
X73247023Y62777738D02*
X73104166Y62730119D01*
X72866071Y62730119D01*
X72770833Y62777738D01*
X72723214Y62825357D01*
X72675595Y62920595D01*
X72675595Y63015833D01*
X72723214Y63111071D01*
X72770833Y63158690D01*
X72866071Y63206309D01*
X73056547Y63253928D01*
X73151785Y63301547D01*
X73199404Y63349166D01*
X73247023Y63444404D01*
X73247023Y63539642D01*
X73199404Y63634880D01*
X73151785Y63682500D01*
X73056547Y63730119D01*
X72818452Y63730119D01*
X72675595Y63682500D01*
X72342261Y63730119D02*
X72104166Y62730119D01*
X71913690Y63444404D01*
X71723214Y62730119D01*
X71485119Y63730119D01*
X71199404Y63730119D02*
X70580357Y63730119D01*
X70913690Y63349166D01*
X70770833Y63349166D01*
X70675595Y63301547D01*
X70627976Y63253928D01*
X70580357Y63158690D01*
X70580357Y62920595D01*
X70627976Y62825357D01*
X70675595Y62777738D01*
X70770833Y62730119D01*
X71056547Y62730119D01*
X71151785Y62777738D01*
X71199404Y62825357D01*
X70247023Y63730119D02*
X69627976Y63730119D01*
X69961309Y63349166D01*
X69818452Y63349166D01*
X69723214Y63301547D01*
X69675595Y63253928D01*
X69627976Y63158690D01*
X69627976Y62920595D01*
X69675595Y62825357D01*
X69723214Y62777738D01*
X69818452Y62730119D01*
X70104166Y62730119D01*
X70199404Y62777738D01*
X70247023Y62825357D01*
X39909523Y865238D02*
X39766666Y817619D01*
X39528571Y817619D01*
X39433333Y865238D01*
X39385714Y912857D01*
X39338095Y1008095D01*
X39338095Y1103333D01*
X39385714Y1198571D01*
X39433333Y1246190D01*
X39528571Y1293809D01*
X39719047Y1341428D01*
X39814285Y1389047D01*
X39861904Y1436666D01*
X39909523Y1531904D01*
X39909523Y1627142D01*
X39861904Y1722380D01*
X39814285Y1770000D01*
X39719047Y1817619D01*
X39480952Y1817619D01*
X39338095Y1770000D01*
X39004761Y1817619D02*
X38766666Y817619D01*
X38576190Y1531904D01*
X38385714Y817619D01*
X38147619Y1817619D01*
X37861904Y1817619D02*
X37242857Y1817619D01*
X37576190Y1436666D01*
X37433333Y1436666D01*
X37338095Y1389047D01*
X37290476Y1341428D01*
X37242857Y1246190D01*
X37242857Y1008095D01*
X37290476Y912857D01*
X37338095Y865238D01*
X37433333Y817619D01*
X37719047Y817619D01*
X37814285Y865238D01*
X37861904Y912857D01*
X36861904Y1722380D02*
X36814285Y1770000D01*
X36719047Y1817619D01*
X36480952Y1817619D01*
X36385714Y1770000D01*
X36338095Y1722380D01*
X36290476Y1627142D01*
X36290476Y1531904D01*
X36338095Y1389047D01*
X36909523Y817619D01*
X36290476Y817619D01*
X54197023Y29440238D02*
X54054166Y29392619D01*
X53816071Y29392619D01*
X53720833Y29440238D01*
X53673214Y29487857D01*
X53625595Y29583095D01*
X53625595Y29678333D01*
X53673214Y29773571D01*
X53720833Y29821190D01*
X53816071Y29868809D01*
X54006547Y29916428D01*
X54101785Y29964047D01*
X54149404Y30011666D01*
X54197023Y30106904D01*
X54197023Y30202142D01*
X54149404Y30297380D01*
X54101785Y30345000D01*
X54006547Y30392619D01*
X53768452Y30392619D01*
X53625595Y30345000D01*
X53292261Y30392619D02*
X53054166Y29392619D01*
X52863690Y30106904D01*
X52673214Y29392619D01*
X52435119Y30392619D01*
X52149404Y30392619D02*
X51530357Y30392619D01*
X51863690Y30011666D01*
X51720833Y30011666D01*
X51625595Y29964047D01*
X51577976Y29916428D01*
X51530357Y29821190D01*
X51530357Y29583095D01*
X51577976Y29487857D01*
X51625595Y29440238D01*
X51720833Y29392619D01*
X52006547Y29392619D01*
X52101785Y29440238D01*
X52149404Y29487857D01*
X50577976Y29392619D02*
X51149404Y29392619D01*
X50863690Y29392619D02*
X50863690Y30392619D01*
X50958928Y30249761D01*
X51054166Y30154523D01*
X51149404Y30106904D01*
X54197023Y48490238D02*
X54054166Y48442619D01*
X53816071Y48442619D01*
X53720833Y48490238D01*
X53673214Y48537857D01*
X53625595Y48633095D01*
X53625595Y48728333D01*
X53673214Y48823571D01*
X53720833Y48871190D01*
X53816071Y48918809D01*
X54006547Y48966428D01*
X54101785Y49014047D01*
X54149404Y49061666D01*
X54197023Y49156904D01*
X54197023Y49252142D01*
X54149404Y49347380D01*
X54101785Y49395000D01*
X54006547Y49442619D01*
X53768452Y49442619D01*
X53625595Y49395000D01*
X53292261Y49442619D02*
X53054166Y48442619D01*
X52863690Y49156904D01*
X52673214Y48442619D01*
X52435119Y49442619D01*
X52149404Y49442619D02*
X51530357Y49442619D01*
X51863690Y49061666D01*
X51720833Y49061666D01*
X51625595Y49014047D01*
X51577976Y48966428D01*
X51530357Y48871190D01*
X51530357Y48633095D01*
X51577976Y48537857D01*
X51625595Y48490238D01*
X51720833Y48442619D01*
X52006547Y48442619D01*
X52101785Y48490238D01*
X52149404Y48537857D01*
X50911309Y49442619D02*
X50816071Y49442619D01*
X50720833Y49395000D01*
X50673214Y49347380D01*
X50625595Y49252142D01*
X50577976Y49061666D01*
X50577976Y48823571D01*
X50625595Y48633095D01*
X50673214Y48537857D01*
X50720833Y48490238D01*
X50816071Y48442619D01*
X50911309Y48442619D01*
X51006547Y48490238D01*
X51054166Y48537857D01*
X51101785Y48633095D01*
X51149404Y48823571D01*
X51149404Y49061666D01*
X51101785Y49252142D01*
X51054166Y49347380D01*
X51006547Y49395000D01*
X50911309Y49442619D01*
X54197023Y67540238D02*
X54054166Y67492619D01*
X53816071Y67492619D01*
X53720833Y67540238D01*
X53673214Y67587857D01*
X53625595Y67683095D01*
X53625595Y67778333D01*
X53673214Y67873571D01*
X53720833Y67921190D01*
X53816071Y67968809D01*
X54006547Y68016428D01*
X54101785Y68064047D01*
X54149404Y68111666D01*
X54197023Y68206904D01*
X54197023Y68302142D01*
X54149404Y68397380D01*
X54101785Y68445000D01*
X54006547Y68492619D01*
X53768452Y68492619D01*
X53625595Y68445000D01*
X53292261Y68492619D02*
X53054166Y67492619D01*
X52863690Y68206904D01*
X52673214Y67492619D01*
X52435119Y68492619D01*
X52101785Y68397380D02*
X52054166Y68445000D01*
X51958928Y68492619D01*
X51720833Y68492619D01*
X51625595Y68445000D01*
X51577976Y68397380D01*
X51530357Y68302142D01*
X51530357Y68206904D01*
X51577976Y68064047D01*
X52149404Y67492619D01*
X51530357Y67492619D01*
X51054166Y67492619D02*
X50863690Y67492619D01*
X50768452Y67540238D01*
X50720833Y67587857D01*
X50625595Y67730714D01*
X50577976Y67921190D01*
X50577976Y68302142D01*
X50625595Y68397380D01*
X50673214Y68445000D01*
X50768452Y68492619D01*
X50958928Y68492619D01*
X51054166Y68445000D01*
X51101785Y68397380D01*
X51149404Y68302142D01*
X51149404Y68064047D01*
X51101785Y67968809D01*
X51054166Y67921190D01*
X50958928Y67873571D01*
X50768452Y67873571D01*
X50673214Y67921190D01*
X50625595Y67968809D01*
X50577976Y68064047D01*
X20859523Y-3897261D02*
X20716666Y-3944880D01*
X20478571Y-3944880D01*
X20383333Y-3897261D01*
X20335714Y-3849642D01*
X20288095Y-3754404D01*
X20288095Y-3659166D01*
X20335714Y-3563928D01*
X20383333Y-3516309D01*
X20478571Y-3468690D01*
X20669047Y-3421071D01*
X20764285Y-3373452D01*
X20811904Y-3325833D01*
X20859523Y-3230595D01*
X20859523Y-3135357D01*
X20811904Y-3040119D01*
X20764285Y-2992500D01*
X20669047Y-2944880D01*
X20430952Y-2944880D01*
X20288095Y-2992500D01*
X19954761Y-2944880D02*
X19716666Y-3944880D01*
X19526190Y-3230595D01*
X19335714Y-3944880D01*
X19097619Y-2944880D01*
X18764285Y-3040119D02*
X18716666Y-2992500D01*
X18621428Y-2944880D01*
X18383333Y-2944880D01*
X18288095Y-2992500D01*
X18240476Y-3040119D01*
X18192857Y-3135357D01*
X18192857Y-3230595D01*
X18240476Y-3373452D01*
X18811904Y-3944880D01*
X18192857Y-3944880D01*
X17621428Y-3373452D02*
X17716666Y-3325833D01*
X17764285Y-3278214D01*
X17811904Y-3182976D01*
X17811904Y-3135357D01*
X17764285Y-3040119D01*
X17716666Y-2992500D01*
X17621428Y-2944880D01*
X17430952Y-2944880D01*
X17335714Y-2992500D01*
X17288095Y-3040119D01*
X17240476Y-3135357D01*
X17240476Y-3182976D01*
X17288095Y-3278214D01*
X17335714Y-3325833D01*
X17430952Y-3373452D01*
X17621428Y-3373452D01*
X17716666Y-3421071D01*
X17764285Y-3468690D01*
X17811904Y-3563928D01*
X17811904Y-3754404D01*
X17764285Y-3849642D01*
X17716666Y-3897261D01*
X17621428Y-3944880D01*
X17430952Y-3944880D01*
X17335714Y-3897261D01*
X17288095Y-3849642D01*
X17240476Y-3754404D01*
X17240476Y-3563928D01*
X17288095Y-3468690D01*
X17335714Y-3421071D01*
X17430952Y-3373452D01*
X35147023Y24677738D02*
X35004166Y24630119D01*
X34766071Y24630119D01*
X34670833Y24677738D01*
X34623214Y24725357D01*
X34575595Y24820595D01*
X34575595Y24915833D01*
X34623214Y25011071D01*
X34670833Y25058690D01*
X34766071Y25106309D01*
X34956547Y25153928D01*
X35051785Y25201547D01*
X35099404Y25249166D01*
X35147023Y25344404D01*
X35147023Y25439642D01*
X35099404Y25534880D01*
X35051785Y25582500D01*
X34956547Y25630119D01*
X34718452Y25630119D01*
X34575595Y25582500D01*
X34242261Y25630119D02*
X34004166Y24630119D01*
X33813690Y25344404D01*
X33623214Y24630119D01*
X33385119Y25630119D01*
X33051785Y25534880D02*
X33004166Y25582500D01*
X32908928Y25630119D01*
X32670833Y25630119D01*
X32575595Y25582500D01*
X32527976Y25534880D01*
X32480357Y25439642D01*
X32480357Y25344404D01*
X32527976Y25201547D01*
X33099404Y24630119D01*
X32480357Y24630119D01*
X32147023Y25630119D02*
X31480357Y25630119D01*
X31908928Y24630119D01*
X35147023Y43727738D02*
X35004166Y43680119D01*
X34766071Y43680119D01*
X34670833Y43727738D01*
X34623214Y43775357D01*
X34575595Y43870595D01*
X34575595Y43965833D01*
X34623214Y44061071D01*
X34670833Y44108690D01*
X34766071Y44156309D01*
X34956547Y44203928D01*
X35051785Y44251547D01*
X35099404Y44299166D01*
X35147023Y44394404D01*
X35147023Y44489642D01*
X35099404Y44584880D01*
X35051785Y44632500D01*
X34956547Y44680119D01*
X34718452Y44680119D01*
X34575595Y44632500D01*
X34242261Y44680119D02*
X34004166Y43680119D01*
X33813690Y44394404D01*
X33623214Y43680119D01*
X33385119Y44680119D01*
X33051785Y44584880D02*
X33004166Y44632500D01*
X32908928Y44680119D01*
X32670833Y44680119D01*
X32575595Y44632500D01*
X32527976Y44584880D01*
X32480357Y44489642D01*
X32480357Y44394404D01*
X32527976Y44251547D01*
X33099404Y43680119D01*
X32480357Y43680119D01*
X31623214Y44680119D02*
X31813690Y44680119D01*
X31908928Y44632500D01*
X31956547Y44584880D01*
X32051785Y44442023D01*
X32099404Y44251547D01*
X32099404Y43870595D01*
X32051785Y43775357D01*
X32004166Y43727738D01*
X31908928Y43680119D01*
X31718452Y43680119D01*
X31623214Y43727738D01*
X31575595Y43775357D01*
X31527976Y43870595D01*
X31527976Y44108690D01*
X31575595Y44203928D01*
X31623214Y44251547D01*
X31718452Y44299166D01*
X31908928Y44299166D01*
X32004166Y44251547D01*
X32051785Y44203928D01*
X32099404Y44108690D01*
X35147023Y62777738D02*
X35004166Y62730119D01*
X34766071Y62730119D01*
X34670833Y62777738D01*
X34623214Y62825357D01*
X34575595Y62920595D01*
X34575595Y63015833D01*
X34623214Y63111071D01*
X34670833Y63158690D01*
X34766071Y63206309D01*
X34956547Y63253928D01*
X35051785Y63301547D01*
X35099404Y63349166D01*
X35147023Y63444404D01*
X35147023Y63539642D01*
X35099404Y63634880D01*
X35051785Y63682500D01*
X34956547Y63730119D01*
X34718452Y63730119D01*
X34575595Y63682500D01*
X34242261Y63730119D02*
X34004166Y62730119D01*
X33813690Y63444404D01*
X33623214Y62730119D01*
X33385119Y63730119D01*
X33051785Y63634880D02*
X33004166Y63682500D01*
X32908928Y63730119D01*
X32670833Y63730119D01*
X32575595Y63682500D01*
X32527976Y63634880D01*
X32480357Y63539642D01*
X32480357Y63444404D01*
X32527976Y63301547D01*
X33099404Y62730119D01*
X32480357Y62730119D01*
X31575595Y63730119D02*
X32051785Y63730119D01*
X32099404Y63253928D01*
X32051785Y63301547D01*
X31956547Y63349166D01*
X31718452Y63349166D01*
X31623214Y63301547D01*
X31575595Y63253928D01*
X31527976Y63158690D01*
X31527976Y62920595D01*
X31575595Y62825357D01*
X31623214Y62777738D01*
X31718452Y62730119D01*
X31956547Y62730119D01*
X32051785Y62777738D01*
X32099404Y62825357D01*
X1809523Y-8659761D02*
X1666666Y-8707380D01*
X1428571Y-8707380D01*
X1333333Y-8659761D01*
X1285714Y-8612142D01*
X1238095Y-8516904D01*
X1238095Y-8421666D01*
X1285714Y-8326428D01*
X1333333Y-8278809D01*
X1428571Y-8231190D01*
X1619047Y-8183571D01*
X1714285Y-8135952D01*
X1761904Y-8088333D01*
X1809523Y-7993095D01*
X1809523Y-7897857D01*
X1761904Y-7802619D01*
X1714285Y-7755000D01*
X1619047Y-7707380D01*
X1380952Y-7707380D01*
X1238095Y-7755000D01*
X904761Y-7707380D02*
X666666Y-8707380D01*
X476190Y-7993095D01*
X285714Y-8707380D01*
X47619Y-7707380D01*
X-285714Y-7802619D02*
X-333333Y-7755000D01*
X-428571Y-7707380D01*
X-666666Y-7707380D01*
X-761904Y-7755000D01*
X-809523Y-7802619D01*
X-857142Y-7897857D01*
X-857142Y-7993095D01*
X-809523Y-8135952D01*
X-238095Y-8707380D01*
X-857142Y-8707380D01*
X-1714285Y-8040714D02*
X-1714285Y-8707380D01*
X-1476190Y-7659761D02*
X-1238095Y-8374047D01*
X-1857142Y-8374047D01*
X16097023Y19915238D02*
X15954166Y19867619D01*
X15716071Y19867619D01*
X15620833Y19915238D01*
X15573214Y19962857D01*
X15525595Y20058095D01*
X15525595Y20153333D01*
X15573214Y20248571D01*
X15620833Y20296190D01*
X15716071Y20343809D01*
X15906547Y20391428D01*
X16001785Y20439047D01*
X16049404Y20486666D01*
X16097023Y20581904D01*
X16097023Y20677142D01*
X16049404Y20772380D01*
X16001785Y20820000D01*
X15906547Y20867619D01*
X15668452Y20867619D01*
X15525595Y20820000D01*
X15192261Y20867619D02*
X14954166Y19867619D01*
X14763690Y20581904D01*
X14573214Y19867619D01*
X14335119Y20867619D01*
X14001785Y20772380D02*
X13954166Y20820000D01*
X13858928Y20867619D01*
X13620833Y20867619D01*
X13525595Y20820000D01*
X13477976Y20772380D01*
X13430357Y20677142D01*
X13430357Y20581904D01*
X13477976Y20439047D01*
X14049404Y19867619D01*
X13430357Y19867619D01*
X13097023Y20867619D02*
X12477976Y20867619D01*
X12811309Y20486666D01*
X12668452Y20486666D01*
X12573214Y20439047D01*
X12525595Y20391428D01*
X12477976Y20296190D01*
X12477976Y20058095D01*
X12525595Y19962857D01*
X12573214Y19915238D01*
X12668452Y19867619D01*
X12954166Y19867619D01*
X13049404Y19915238D01*
X13097023Y19962857D01*
X16097023Y38965238D02*
X15954166Y38917619D01*
X15716071Y38917619D01*
X15620833Y38965238D01*
X15573214Y39012857D01*
X15525595Y39108095D01*
X15525595Y39203333D01*
X15573214Y39298571D01*
X15620833Y39346190D01*
X15716071Y39393809D01*
X15906547Y39441428D01*
X16001785Y39489047D01*
X16049404Y39536666D01*
X16097023Y39631904D01*
X16097023Y39727142D01*
X16049404Y39822380D01*
X16001785Y39870000D01*
X15906547Y39917619D01*
X15668452Y39917619D01*
X15525595Y39870000D01*
X15192261Y39917619D02*
X14954166Y38917619D01*
X14763690Y39631904D01*
X14573214Y38917619D01*
X14335119Y39917619D01*
X14001785Y39822380D02*
X13954166Y39870000D01*
X13858928Y39917619D01*
X13620833Y39917619D01*
X13525595Y39870000D01*
X13477976Y39822380D01*
X13430357Y39727142D01*
X13430357Y39631904D01*
X13477976Y39489047D01*
X14049404Y38917619D01*
X13430357Y38917619D01*
X13049404Y39822380D02*
X13001785Y39870000D01*
X12906547Y39917619D01*
X12668452Y39917619D01*
X12573214Y39870000D01*
X12525595Y39822380D01*
X12477976Y39727142D01*
X12477976Y39631904D01*
X12525595Y39489047D01*
X13097023Y38917619D01*
X12477976Y38917619D01*
X16097023Y58015238D02*
X15954166Y57967619D01*
X15716071Y57967619D01*
X15620833Y58015238D01*
X15573214Y58062857D01*
X15525595Y58158095D01*
X15525595Y58253333D01*
X15573214Y58348571D01*
X15620833Y58396190D01*
X15716071Y58443809D01*
X15906547Y58491428D01*
X16001785Y58539047D01*
X16049404Y58586666D01*
X16097023Y58681904D01*
X16097023Y58777142D01*
X16049404Y58872380D01*
X16001785Y58920000D01*
X15906547Y58967619D01*
X15668452Y58967619D01*
X15525595Y58920000D01*
X15192261Y58967619D02*
X14954166Y57967619D01*
X14763690Y58681904D01*
X14573214Y57967619D01*
X14335119Y58967619D01*
X14001785Y58872380D02*
X13954166Y58920000D01*
X13858928Y58967619D01*
X13620833Y58967619D01*
X13525595Y58920000D01*
X13477976Y58872380D01*
X13430357Y58777142D01*
X13430357Y58681904D01*
X13477976Y58539047D01*
X14049404Y57967619D01*
X13430357Y57967619D01*
X12477976Y57967619D02*
X13049404Y57967619D01*
X12763690Y57967619D02*
X12763690Y58967619D01*
X12858928Y58824761D01*
X12954166Y58729523D01*
X13049404Y58681904D01*
X103227380Y52870485D02*
X102227380Y52870485D01*
X102227380Y52632390D01*
X102275000Y52489533D01*
X102370238Y52394295D01*
X102465476Y52346676D01*
X102655952Y52299057D01*
X102798809Y52299057D01*
X102989285Y52346676D01*
X103084523Y52394295D01*
X103179761Y52489533D01*
X103227380Y52632390D01*
X103227380Y52870485D01*
X102560714Y51441914D02*
X103227380Y51441914D01*
X102179761Y51680009D02*
X102894047Y51918104D01*
X102894047Y51299057D01*
X102227380Y50727628D02*
X102227380Y50632390D01*
X102275000Y50537152D01*
X102322619Y50489533D01*
X102417857Y50441914D01*
X102608333Y50394295D01*
X102846428Y50394295D01*
X103036904Y50441914D01*
X103132142Y50489533D01*
X103179761Y50537152D01*
X103227380Y50632390D01*
X103227380Y50727628D01*
X103179761Y50822866D01*
X103132142Y50870485D01*
X103036904Y50918104D01*
X102846428Y50965723D01*
X102608333Y50965723D01*
X102417857Y50918104D01*
X102322619Y50870485D01*
X102275000Y50822866D01*
X102227380Y50727628D01*
X84177380Y29058085D02*
X83177380Y29058085D01*
X83177380Y28819990D01*
X83225000Y28677133D01*
X83320238Y28581895D01*
X83415476Y28534276D01*
X83605952Y28486657D01*
X83748809Y28486657D01*
X83939285Y28534276D01*
X84034523Y28581895D01*
X84129761Y28677133D01*
X84177380Y28819990D01*
X84177380Y29058085D01*
X83177380Y28153323D02*
X83177380Y27534276D01*
X83558333Y27867609D01*
X83558333Y27724752D01*
X83605952Y27629514D01*
X83653571Y27581895D01*
X83748809Y27534276D01*
X83986904Y27534276D01*
X84082142Y27581895D01*
X84129761Y27629514D01*
X84177380Y27724752D01*
X84177380Y28010466D01*
X84129761Y28105704D01*
X84082142Y28153323D01*
X84177380Y27058085D02*
X84177380Y26867609D01*
X84129761Y26772371D01*
X84082142Y26724752D01*
X83939285Y26629514D01*
X83748809Y26581895D01*
X83367857Y26581895D01*
X83272619Y26629514D01*
X83225000Y26677133D01*
X83177380Y26772371D01*
X83177380Y26962847D01*
X83225000Y27058085D01*
X83272619Y27105704D01*
X83367857Y27153323D01*
X83605952Y27153323D01*
X83701190Y27105704D01*
X83748809Y27058085D01*
X83796428Y26962847D01*
X83796428Y26772371D01*
X83748809Y26677133D01*
X83701190Y26629514D01*
X83605952Y26581895D01*
X84177380Y48108085D02*
X83177380Y48108085D01*
X83177380Y47869990D01*
X83225000Y47727133D01*
X83320238Y47631895D01*
X83415476Y47584276D01*
X83605952Y47536657D01*
X83748809Y47536657D01*
X83939285Y47584276D01*
X84034523Y47631895D01*
X84129761Y47727133D01*
X84177380Y47869990D01*
X84177380Y48108085D01*
X83177380Y47203323D02*
X83177380Y46584276D01*
X83558333Y46917609D01*
X83558333Y46774752D01*
X83605952Y46679514D01*
X83653571Y46631895D01*
X83748809Y46584276D01*
X83986904Y46584276D01*
X84082142Y46631895D01*
X84129761Y46679514D01*
X84177380Y46774752D01*
X84177380Y47060466D01*
X84129761Y47155704D01*
X84082142Y47203323D01*
X83605952Y46012847D02*
X83558333Y46108085D01*
X83510714Y46155704D01*
X83415476Y46203323D01*
X83367857Y46203323D01*
X83272619Y46155704D01*
X83225000Y46108085D01*
X83177380Y46012847D01*
X83177380Y45822371D01*
X83225000Y45727133D01*
X83272619Y45679514D01*
X83367857Y45631895D01*
X83415476Y45631895D01*
X83510714Y45679514D01*
X83558333Y45727133D01*
X83605952Y45822371D01*
X83605952Y46012847D01*
X83653571Y46108085D01*
X83701190Y46155704D01*
X83796428Y46203323D01*
X83986904Y46203323D01*
X84082142Y46155704D01*
X84129761Y46108085D01*
X84177380Y46012847D01*
X84177380Y45822371D01*
X84129761Y45727133D01*
X84082142Y45679514D01*
X83986904Y45631895D01*
X83796428Y45631895D01*
X83701190Y45679514D01*
X83653571Y45727133D01*
X83605952Y45822371D01*
X84177380Y67158085D02*
X83177380Y67158085D01*
X83177380Y66919990D01*
X83225000Y66777133D01*
X83320238Y66681895D01*
X83415476Y66634276D01*
X83605952Y66586657D01*
X83748809Y66586657D01*
X83939285Y66634276D01*
X84034523Y66681895D01*
X84129761Y66777133D01*
X84177380Y66919990D01*
X84177380Y67158085D01*
X83177380Y66253323D02*
X83177380Y65634276D01*
X83558333Y65967609D01*
X83558333Y65824752D01*
X83605952Y65729514D01*
X83653571Y65681895D01*
X83748809Y65634276D01*
X83986904Y65634276D01*
X84082142Y65681895D01*
X84129761Y65729514D01*
X84177380Y65824752D01*
X84177380Y66110466D01*
X84129761Y66205704D01*
X84082142Y66253323D01*
X83177380Y65300942D02*
X83177380Y64634276D01*
X84177380Y65062847D01*
X103227380Y33820485D02*
X102227380Y33820485D01*
X102227380Y33582390D01*
X102275000Y33439533D01*
X102370238Y33344295D01*
X102465476Y33296676D01*
X102655952Y33249057D01*
X102798809Y33249057D01*
X102989285Y33296676D01*
X103084523Y33344295D01*
X103179761Y33439533D01*
X103227380Y33582390D01*
X103227380Y33820485D01*
X102227380Y32915723D02*
X102227380Y32296676D01*
X102608333Y32630009D01*
X102608333Y32487152D01*
X102655952Y32391914D01*
X102703571Y32344295D01*
X102798809Y32296676D01*
X103036904Y32296676D01*
X103132142Y32344295D01*
X103179761Y32391914D01*
X103227380Y32487152D01*
X103227380Y32772866D01*
X103179761Y32868104D01*
X103132142Y32915723D01*
X102227380Y31439533D02*
X102227380Y31630009D01*
X102275000Y31725247D01*
X102322619Y31772866D01*
X102465476Y31868104D01*
X102655952Y31915723D01*
X103036904Y31915723D01*
X103132142Y31868104D01*
X103179761Y31820485D01*
X103227380Y31725247D01*
X103227380Y31534771D01*
X103179761Y31439533D01*
X103132142Y31391914D01*
X103036904Y31344295D01*
X102798809Y31344295D01*
X102703571Y31391914D01*
X102655952Y31439533D01*
X102608333Y31534771D01*
X102608333Y31725247D01*
X102655952Y31820485D01*
X102703571Y31868104D01*
X102798809Y31915723D01*
X65127380Y38583085D02*
X64127380Y38583085D01*
X64127380Y38344990D01*
X64175000Y38202133D01*
X64270238Y38106895D01*
X64365476Y38059276D01*
X64555952Y38011657D01*
X64698809Y38011657D01*
X64889285Y38059276D01*
X64984523Y38106895D01*
X65079761Y38202133D01*
X65127380Y38344990D01*
X65127380Y38583085D01*
X64127380Y37678323D02*
X64127380Y37059276D01*
X64508333Y37392609D01*
X64508333Y37249752D01*
X64555952Y37154514D01*
X64603571Y37106895D01*
X64698809Y37059276D01*
X64936904Y37059276D01*
X65032142Y37106895D01*
X65079761Y37154514D01*
X65127380Y37249752D01*
X65127380Y37535466D01*
X65079761Y37630704D01*
X65032142Y37678323D01*
X64127380Y36154514D02*
X64127380Y36630704D01*
X64603571Y36678323D01*
X64555952Y36630704D01*
X64508333Y36535466D01*
X64508333Y36297371D01*
X64555952Y36202133D01*
X64603571Y36154514D01*
X64698809Y36106895D01*
X64936904Y36106895D01*
X65032142Y36154514D01*
X65079761Y36202133D01*
X65127380Y36297371D01*
X65127380Y36535466D01*
X65079761Y36630704D01*
X65032142Y36678323D01*
X65127380Y57633085D02*
X64127380Y57633085D01*
X64127380Y57394990D01*
X64175000Y57252133D01*
X64270238Y57156895D01*
X64365476Y57109276D01*
X64555952Y57061657D01*
X64698809Y57061657D01*
X64889285Y57109276D01*
X64984523Y57156895D01*
X65079761Y57252133D01*
X65127380Y57394990D01*
X65127380Y57633085D01*
X64127380Y56728323D02*
X64127380Y56109276D01*
X64508333Y56442609D01*
X64508333Y56299752D01*
X64555952Y56204514D01*
X64603571Y56156895D01*
X64698809Y56109276D01*
X64936904Y56109276D01*
X65032142Y56156895D01*
X65079761Y56204514D01*
X65127380Y56299752D01*
X65127380Y56585466D01*
X65079761Y56680704D01*
X65032142Y56728323D01*
X64460714Y55252133D02*
X65127380Y55252133D01*
X64079761Y55490228D02*
X64794047Y55728323D01*
X64794047Y55109276D01*
X65127380Y76683085D02*
X64127380Y76683085D01*
X64127380Y76444990D01*
X64175000Y76302133D01*
X64270238Y76206895D01*
X64365476Y76159276D01*
X64555952Y76111657D01*
X64698809Y76111657D01*
X64889285Y76159276D01*
X64984523Y76206895D01*
X65079761Y76302133D01*
X65127380Y76444990D01*
X65127380Y76683085D01*
X64127380Y75778323D02*
X64127380Y75159276D01*
X64508333Y75492609D01*
X64508333Y75349752D01*
X64555952Y75254514D01*
X64603571Y75206895D01*
X64698809Y75159276D01*
X64936904Y75159276D01*
X65032142Y75206895D01*
X65079761Y75254514D01*
X65127380Y75349752D01*
X65127380Y75635466D01*
X65079761Y75730704D01*
X65032142Y75778323D01*
X64127380Y74825942D02*
X64127380Y74206895D01*
X64508333Y74540228D01*
X64508333Y74397371D01*
X64555952Y74302133D01*
X64603571Y74254514D01*
X64698809Y74206895D01*
X64936904Y74206895D01*
X65032142Y74254514D01*
X65079761Y74302133D01*
X65127380Y74397371D01*
X65127380Y74683085D01*
X65079761Y74778323D01*
X65032142Y74825942D01*
X31789880Y14770485D02*
X30789880Y14770485D01*
X30789880Y14532390D01*
X30837500Y14389533D01*
X30932738Y14294295D01*
X31027976Y14246676D01*
X31218452Y14199057D01*
X31361309Y14199057D01*
X31551785Y14246676D01*
X31647023Y14294295D01*
X31742261Y14389533D01*
X31789880Y14532390D01*
X31789880Y14770485D01*
X30789880Y13865723D02*
X30789880Y13246676D01*
X31170833Y13580009D01*
X31170833Y13437152D01*
X31218452Y13341914D01*
X31266071Y13294295D01*
X31361309Y13246676D01*
X31599404Y13246676D01*
X31694642Y13294295D01*
X31742261Y13341914D01*
X31789880Y13437152D01*
X31789880Y13722866D01*
X31742261Y13818104D01*
X31694642Y13865723D01*
X30885119Y12865723D02*
X30837500Y12818104D01*
X30789880Y12722866D01*
X30789880Y12484771D01*
X30837500Y12389533D01*
X30885119Y12341914D01*
X30980357Y12294295D01*
X31075595Y12294295D01*
X31218452Y12341914D01*
X31789880Y12913342D01*
X31789880Y12294295D01*
X46077380Y43345485D02*
X45077380Y43345485D01*
X45077380Y43107390D01*
X45125000Y42964533D01*
X45220238Y42869295D01*
X45315476Y42821676D01*
X45505952Y42774057D01*
X45648809Y42774057D01*
X45839285Y42821676D01*
X45934523Y42869295D01*
X46029761Y42964533D01*
X46077380Y43107390D01*
X46077380Y43345485D01*
X45077380Y42440723D02*
X45077380Y41821676D01*
X45458333Y42155009D01*
X45458333Y42012152D01*
X45505952Y41916914D01*
X45553571Y41869295D01*
X45648809Y41821676D01*
X45886904Y41821676D01*
X45982142Y41869295D01*
X46029761Y41916914D01*
X46077380Y42012152D01*
X46077380Y42297866D01*
X46029761Y42393104D01*
X45982142Y42440723D01*
X46077380Y40869295D02*
X46077380Y41440723D01*
X46077380Y41155009D02*
X45077380Y41155009D01*
X45220238Y41250247D01*
X45315476Y41345485D01*
X45363095Y41440723D01*
X46077380Y62395485D02*
X45077380Y62395485D01*
X45077380Y62157390D01*
X45125000Y62014533D01*
X45220238Y61919295D01*
X45315476Y61871676D01*
X45505952Y61824057D01*
X45648809Y61824057D01*
X45839285Y61871676D01*
X45934523Y61919295D01*
X46029761Y62014533D01*
X46077380Y62157390D01*
X46077380Y62395485D01*
X45077380Y61490723D02*
X45077380Y60871676D01*
X45458333Y61205009D01*
X45458333Y61062152D01*
X45505952Y60966914D01*
X45553571Y60919295D01*
X45648809Y60871676D01*
X45886904Y60871676D01*
X45982142Y60919295D01*
X46029761Y60966914D01*
X46077380Y61062152D01*
X46077380Y61347866D01*
X46029761Y61443104D01*
X45982142Y61490723D01*
X45077380Y60252628D02*
X45077380Y60157390D01*
X45125000Y60062152D01*
X45172619Y60014533D01*
X45267857Y59966914D01*
X45458333Y59919295D01*
X45696428Y59919295D01*
X45886904Y59966914D01*
X45982142Y60014533D01*
X46029761Y60062152D01*
X46077380Y60157390D01*
X46077380Y60252628D01*
X46029761Y60347866D01*
X45982142Y60395485D01*
X45886904Y60443104D01*
X45696428Y60490723D01*
X45458333Y60490723D01*
X45267857Y60443104D01*
X45172619Y60395485D01*
X45125000Y60347866D01*
X45077380Y60252628D01*
X46077380Y81445485D02*
X45077380Y81445485D01*
X45077380Y81207390D01*
X45125000Y81064533D01*
X45220238Y80969295D01*
X45315476Y80921676D01*
X45505952Y80874057D01*
X45648809Y80874057D01*
X45839285Y80921676D01*
X45934523Y80969295D01*
X46029761Y81064533D01*
X46077380Y81207390D01*
X46077380Y81445485D01*
X45172619Y80493104D02*
X45125000Y80445485D01*
X45077380Y80350247D01*
X45077380Y80112152D01*
X45125000Y80016914D01*
X45172619Y79969295D01*
X45267857Y79921676D01*
X45363095Y79921676D01*
X45505952Y79969295D01*
X46077380Y80540723D01*
X46077380Y79921676D01*
X46077380Y79445485D02*
X46077380Y79255009D01*
X46029761Y79159771D01*
X45982142Y79112152D01*
X45839285Y79016914D01*
X45648809Y78969295D01*
X45267857Y78969295D01*
X45172619Y79016914D01*
X45125000Y79064533D01*
X45077380Y79159771D01*
X45077380Y79350247D01*
X45125000Y79445485D01*
X45172619Y79493104D01*
X45267857Y79540723D01*
X45505952Y79540723D01*
X45601190Y79493104D01*
X45648809Y79445485D01*
X45696428Y79350247D01*
X45696428Y79159771D01*
X45648809Y79064533D01*
X45601190Y79016914D01*
X45505952Y78969295D01*
X12739880Y10008085D02*
X11739880Y10008085D01*
X11739880Y9769990D01*
X11787500Y9627133D01*
X11882738Y9531895D01*
X11977976Y9484276D01*
X12168452Y9436657D01*
X12311309Y9436657D01*
X12501785Y9484276D01*
X12597023Y9531895D01*
X12692261Y9627133D01*
X12739880Y9769990D01*
X12739880Y10008085D01*
X11835119Y9055704D02*
X11787500Y9008085D01*
X11739880Y8912847D01*
X11739880Y8674752D01*
X11787500Y8579514D01*
X11835119Y8531895D01*
X11930357Y8484276D01*
X12025595Y8484276D01*
X12168452Y8531895D01*
X12739880Y9103323D01*
X12739880Y8484276D01*
X12168452Y7912847D02*
X12120833Y8008085D01*
X12073214Y8055704D01*
X11977976Y8103323D01*
X11930357Y8103323D01*
X11835119Y8055704D01*
X11787500Y8008085D01*
X11739880Y7912847D01*
X11739880Y7722371D01*
X11787500Y7627133D01*
X11835119Y7579514D01*
X11930357Y7531895D01*
X11977976Y7531895D01*
X12073214Y7579514D01*
X12120833Y7627133D01*
X12168452Y7722371D01*
X12168452Y7912847D01*
X12216071Y8008085D01*
X12263690Y8055704D01*
X12358928Y8103323D01*
X12549404Y8103323D01*
X12644642Y8055704D01*
X12692261Y8008085D01*
X12739880Y7912847D01*
X12739880Y7722371D01*
X12692261Y7627133D01*
X12644642Y7579514D01*
X12549404Y7531895D01*
X12358928Y7531895D01*
X12263690Y7579514D01*
X12216071Y7627133D01*
X12168452Y7722371D01*
X27027380Y38583085D02*
X26027380Y38583085D01*
X26027380Y38344990D01*
X26075000Y38202133D01*
X26170238Y38106895D01*
X26265476Y38059276D01*
X26455952Y38011657D01*
X26598809Y38011657D01*
X26789285Y38059276D01*
X26884523Y38106895D01*
X26979761Y38202133D01*
X27027380Y38344990D01*
X27027380Y38583085D01*
X26122619Y37630704D02*
X26075000Y37583085D01*
X26027380Y37487847D01*
X26027380Y37249752D01*
X26075000Y37154514D01*
X26122619Y37106895D01*
X26217857Y37059276D01*
X26313095Y37059276D01*
X26455952Y37106895D01*
X27027380Y37678323D01*
X27027380Y37059276D01*
X26027380Y36725942D02*
X26027380Y36059276D01*
X27027380Y36487847D01*
X27027380Y57633085D02*
X26027380Y57633085D01*
X26027380Y57394990D01*
X26075000Y57252133D01*
X26170238Y57156895D01*
X26265476Y57109276D01*
X26455952Y57061657D01*
X26598809Y57061657D01*
X26789285Y57109276D01*
X26884523Y57156895D01*
X26979761Y57252133D01*
X27027380Y57394990D01*
X27027380Y57633085D01*
X26122619Y56680704D02*
X26075000Y56633085D01*
X26027380Y56537847D01*
X26027380Y56299752D01*
X26075000Y56204514D01*
X26122619Y56156895D01*
X26217857Y56109276D01*
X26313095Y56109276D01*
X26455952Y56156895D01*
X27027380Y56728323D01*
X27027380Y56109276D01*
X26027380Y55252133D02*
X26027380Y55442609D01*
X26075000Y55537847D01*
X26122619Y55585466D01*
X26265476Y55680704D01*
X26455952Y55728323D01*
X26836904Y55728323D01*
X26932142Y55680704D01*
X26979761Y55633085D01*
X27027380Y55537847D01*
X27027380Y55347371D01*
X26979761Y55252133D01*
X26932142Y55204514D01*
X26836904Y55156895D01*
X26598809Y55156895D01*
X26503571Y55204514D01*
X26455952Y55252133D01*
X26408333Y55347371D01*
X26408333Y55537847D01*
X26455952Y55633085D01*
X26503571Y55680704D01*
X26598809Y55728323D01*
X27027380Y76683085D02*
X26027380Y76683085D01*
X26027380Y76444990D01*
X26075000Y76302133D01*
X26170238Y76206895D01*
X26265476Y76159276D01*
X26455952Y76111657D01*
X26598809Y76111657D01*
X26789285Y76159276D01*
X26884523Y76206895D01*
X26979761Y76302133D01*
X27027380Y76444990D01*
X27027380Y76683085D01*
X26122619Y75730704D02*
X26075000Y75683085D01*
X26027380Y75587847D01*
X26027380Y75349752D01*
X26075000Y75254514D01*
X26122619Y75206895D01*
X26217857Y75159276D01*
X26313095Y75159276D01*
X26455952Y75206895D01*
X27027380Y75778323D01*
X27027380Y75159276D01*
X26027380Y74254514D02*
X26027380Y74730704D01*
X26503571Y74778323D01*
X26455952Y74730704D01*
X26408333Y74635466D01*
X26408333Y74397371D01*
X26455952Y74302133D01*
X26503571Y74254514D01*
X26598809Y74206895D01*
X26836904Y74206895D01*
X26932142Y74254514D01*
X26979761Y74302133D01*
X27027380Y74397371D01*
X27027380Y74635466D01*
X26979761Y74730704D01*
X26932142Y74778323D01*
X-6310119Y5245585D02*
X-7310119Y5245585D01*
X-7310119Y5007490D01*
X-7262500Y4864633D01*
X-7167261Y4769395D01*
X-7072023Y4721776D01*
X-6881547Y4674157D01*
X-6738690Y4674157D01*
X-6548214Y4721776D01*
X-6452976Y4769395D01*
X-6357738Y4864633D01*
X-6310119Y5007490D01*
X-6310119Y5245585D01*
X-7214880Y4293204D02*
X-7262500Y4245585D01*
X-7310119Y4150347D01*
X-7310119Y3912252D01*
X-7262500Y3817014D01*
X-7214880Y3769395D01*
X-7119642Y3721776D01*
X-7024404Y3721776D01*
X-6881547Y3769395D01*
X-6310119Y4340823D01*
X-6310119Y3721776D01*
X-6976785Y2864633D02*
X-6310119Y2864633D01*
X-7357738Y3102728D02*
X-6643452Y3340823D01*
X-6643452Y2721776D01*
X7977380Y33820485D02*
X6977380Y33820485D01*
X6977380Y33582390D01*
X7025000Y33439533D01*
X7120238Y33344295D01*
X7215476Y33296676D01*
X7405952Y33249057D01*
X7548809Y33249057D01*
X7739285Y33296676D01*
X7834523Y33344295D01*
X7929761Y33439533D01*
X7977380Y33582390D01*
X7977380Y33820485D01*
X7072619Y32868104D02*
X7025000Y32820485D01*
X6977380Y32725247D01*
X6977380Y32487152D01*
X7025000Y32391914D01*
X7072619Y32344295D01*
X7167857Y32296676D01*
X7263095Y32296676D01*
X7405952Y32344295D01*
X7977380Y32915723D01*
X7977380Y32296676D01*
X6977380Y31963342D02*
X6977380Y31344295D01*
X7358333Y31677628D01*
X7358333Y31534771D01*
X7405952Y31439533D01*
X7453571Y31391914D01*
X7548809Y31344295D01*
X7786904Y31344295D01*
X7882142Y31391914D01*
X7929761Y31439533D01*
X7977380Y31534771D01*
X7977380Y31820485D01*
X7929761Y31915723D01*
X7882142Y31963342D01*
X7977380Y52870485D02*
X6977380Y52870485D01*
X6977380Y52632390D01*
X7025000Y52489533D01*
X7120238Y52394295D01*
X7215476Y52346676D01*
X7405952Y52299057D01*
X7548809Y52299057D01*
X7739285Y52346676D01*
X7834523Y52394295D01*
X7929761Y52489533D01*
X7977380Y52632390D01*
X7977380Y52870485D01*
X7072619Y51918104D02*
X7025000Y51870485D01*
X6977380Y51775247D01*
X6977380Y51537152D01*
X7025000Y51441914D01*
X7072619Y51394295D01*
X7167857Y51346676D01*
X7263095Y51346676D01*
X7405952Y51394295D01*
X7977380Y51965723D01*
X7977380Y51346676D01*
X7072619Y50965723D02*
X7025000Y50918104D01*
X6977380Y50822866D01*
X6977380Y50584771D01*
X7025000Y50489533D01*
X7072619Y50441914D01*
X7167857Y50394295D01*
X7263095Y50394295D01*
X7405952Y50441914D01*
X7977380Y51013342D01*
X7977380Y50394295D01*
X7977380Y71920485D02*
X6977380Y71920485D01*
X6977380Y71682390D01*
X7025000Y71539533D01*
X7120238Y71444295D01*
X7215476Y71396676D01*
X7405952Y71349057D01*
X7548809Y71349057D01*
X7739285Y71396676D01*
X7834523Y71444295D01*
X7929761Y71539533D01*
X7977380Y71682390D01*
X7977380Y71920485D01*
X7072619Y70968104D02*
X7025000Y70920485D01*
X6977380Y70825247D01*
X6977380Y70587152D01*
X7025000Y70491914D01*
X7072619Y70444295D01*
X7167857Y70396676D01*
X7263095Y70396676D01*
X7405952Y70444295D01*
X7977380Y71015723D01*
X7977380Y70396676D01*
X7977380Y69444295D02*
X7977380Y70015723D01*
X7977380Y69730009D02*
X6977380Y69730009D01*
X7120238Y69825247D01*
X7215476Y69920485D01*
X7263095Y70015723D01*
M02*
