G04 #@! TF.GenerationSoftware,KiCad,Pcbnew,5.1.10-88a1d61d58~88~ubuntu18.04.1*
G04 #@! TF.CreationDate,2021-07-26T22:38:52+03:00*
G04 #@! TF.ProjectId,pcb,7063622e-6b69-4636-9164-5f7063625858,rev?*
G04 #@! TF.SameCoordinates,Original*
G04 #@! TF.FileFunction,Soldermask,Top*
G04 #@! TF.FilePolarity,Negative*
%FSLAX46Y46*%
G04 Gerber Fmt 4.6, Leading zero omitted, Abs format (unit mm)*
G04 Created by KiCad (PCBNEW 5.1.10-88a1d61d58~88~ubuntu18.04.1) date 2021-07-26 22:38:52*
%MOMM*%
%LPD*%
G01*
G04 APERTURE LIST*
%ADD10C,3.200000*%
%ADD11C,1.701800*%
%ADD12C,3.987800*%
%ADD13C,3.000000*%
%ADD14R,2.550000X2.500000*%
%ADD15O,1.700000X1.700000*%
%ADD16R,1.700000X1.700000*%
%ADD17R,1.200000X0.900000*%
G04 APERTURE END LIST*
D10*
X9225000Y9525000D03*
X23512500Y57150000D03*
X62212500Y61912500D03*
X99712500Y33337500D03*
D11*
X114618000Y47625000D03*
X104458000Y47625000D03*
D12*
X109538000Y47625000D03*
D13*
X113348000Y45085000D03*
X106998000Y42545000D03*
D11*
X95567500Y23812500D03*
X85407500Y23812500D03*
D12*
X90487500Y23812500D03*
D13*
X94297500Y21272500D03*
X87947500Y18732500D03*
D11*
X95567500Y42862500D03*
X85407500Y42862500D03*
D12*
X90487500Y42862500D03*
D13*
X94297500Y40322500D03*
X87947500Y37782500D03*
D11*
X95567500Y61912500D03*
X85407500Y61912500D03*
D12*
X90487500Y61912500D03*
D13*
X94297500Y59372500D03*
X87947500Y56832500D03*
D11*
X114618000Y28575000D03*
X104458000Y28575000D03*
D12*
X109538000Y28575000D03*
D13*
X113348000Y26035000D03*
X106998000Y23495000D03*
D11*
X76517500Y33337500D03*
X66357500Y33337500D03*
D12*
X71437500Y33337500D03*
D13*
X75247500Y30797500D03*
X68897500Y28257500D03*
D11*
X76517500Y52387500D03*
X66357500Y52387500D03*
D12*
X71437500Y52387500D03*
D13*
X75247500Y49847500D03*
X68897500Y47307500D03*
D11*
X76517500Y71437500D03*
X66357500Y71437500D03*
D12*
X71437500Y71437500D03*
D13*
X75247500Y68897500D03*
X68897500Y66357500D03*
D11*
X43180000Y9525000D03*
X33020000Y9525000D03*
D12*
X38100000Y9525000D03*
D13*
X41910000Y6985000D03*
X35560000Y4445000D03*
D11*
X57467500Y38100000D03*
X47307500Y38100000D03*
D12*
X52387500Y38100000D03*
D13*
X56197500Y35560000D03*
X49847500Y33020000D03*
D11*
X57467500Y57150000D03*
X47307500Y57150000D03*
D12*
X52387500Y57150000D03*
D13*
X56197500Y54610000D03*
X49847500Y52070000D03*
D11*
X57467500Y76200000D03*
X47307500Y76200000D03*
D12*
X52387500Y76200000D03*
D13*
X56197500Y73660000D03*
X49847500Y71120000D03*
D11*
X24130000Y4762500D03*
X13970000Y4762500D03*
D12*
X19050000Y4762500D03*
D13*
X22860000Y2222500D03*
X16510000Y-317500D03*
D11*
X38417500Y33337500D03*
X28257500Y33337500D03*
D12*
X33337500Y33337500D03*
D13*
X37147500Y30797500D03*
X30797500Y28257500D03*
D11*
X38417500Y52387500D03*
X28257500Y52387500D03*
D12*
X33337500Y52387500D03*
D13*
X37147500Y49847500D03*
X30797500Y47307500D03*
D11*
X38417500Y71437500D03*
X28257500Y71437500D03*
D12*
X33337500Y71437500D03*
D13*
X37147500Y68897500D03*
X30797500Y66357500D03*
D11*
X5080000Y0D03*
X-5080000Y0D03*
D12*
X0Y0D03*
D13*
X3810000Y-2540000D03*
X-2540000Y-5080000D03*
D11*
X19367500Y28575000D03*
X9207500Y28575000D03*
D12*
X14287500Y28575000D03*
D13*
X18097500Y26035000D03*
X11747500Y23495000D03*
D11*
X19367500Y47625000D03*
X9207500Y47625000D03*
D12*
X14287500Y47625000D03*
D13*
X18097500Y45085000D03*
X11747500Y42545000D03*
D11*
X19367500Y66675000D03*
X9207500Y66675000D03*
D12*
X14287500Y66675000D03*
D13*
X18097500Y64135000D03*
X11747500Y61595000D03*
D14*
X101978000Y45085000D03*
D11*
X104458000Y47625000D03*
X114618000Y47625000D03*
D12*
X109538000Y47625000D03*
D13*
X105728000Y45085000D03*
X112078000Y42545000D03*
D14*
X115828000Y42545000D03*
X82927500Y21272500D03*
D11*
X85407500Y23812500D03*
X95567500Y23812500D03*
D12*
X90487500Y23812500D03*
D13*
X86677500Y21272500D03*
X93027500Y18732500D03*
D14*
X96777500Y18732500D03*
X82927500Y40322500D03*
D11*
X85407500Y42862500D03*
X95567500Y42862500D03*
D12*
X90487500Y42862500D03*
D13*
X86677500Y40322500D03*
X93027500Y37782500D03*
D14*
X96777500Y37782500D03*
X82927500Y59372500D03*
D11*
X85407500Y61912500D03*
X95567500Y61912500D03*
D12*
X90487500Y61912500D03*
D13*
X86677500Y59372500D03*
X93027500Y56832500D03*
D14*
X96777500Y56832500D03*
X101978000Y26035000D03*
D11*
X104458000Y28575000D03*
X114618000Y28575000D03*
D12*
X109538000Y28575000D03*
D13*
X105728000Y26035000D03*
X112078000Y23495000D03*
D14*
X115828000Y23495000D03*
X63877500Y30797500D03*
D11*
X66357500Y33337500D03*
X76517500Y33337500D03*
D12*
X71437500Y33337500D03*
D13*
X67627500Y30797500D03*
X73977500Y28257500D03*
D14*
X77727500Y28257500D03*
X63877500Y49847500D03*
D11*
X66357500Y52387500D03*
X76517500Y52387500D03*
D12*
X71437500Y52387500D03*
D13*
X67627500Y49847500D03*
X73977500Y47307500D03*
D14*
X77727500Y47307500D03*
X63877500Y68897500D03*
D11*
X66357500Y71437500D03*
X76517500Y71437500D03*
D12*
X71437500Y71437500D03*
D13*
X67627500Y68897500D03*
X73977500Y66357500D03*
D14*
X77727500Y66357500D03*
X30540000Y6985000D03*
D11*
X33020000Y9525000D03*
X43180000Y9525000D03*
D12*
X38100000Y9525000D03*
D13*
X34290000Y6985000D03*
X40640000Y4445000D03*
D14*
X44390000Y4445000D03*
X44827500Y35560000D03*
D11*
X47307500Y38100000D03*
X57467500Y38100000D03*
D12*
X52387500Y38100000D03*
D13*
X48577500Y35560000D03*
X54927500Y33020000D03*
D14*
X58677500Y33020000D03*
X44827500Y54610000D03*
D11*
X47307500Y57150000D03*
X57467500Y57150000D03*
D12*
X52387500Y57150000D03*
D13*
X48577500Y54610000D03*
X54927500Y52070000D03*
D14*
X58677500Y52070000D03*
X44827500Y73660000D03*
D11*
X47307500Y76200000D03*
X57467500Y76200000D03*
D12*
X52387500Y76200000D03*
D13*
X48577500Y73660000D03*
X54927500Y71120000D03*
D14*
X58677500Y71120000D03*
X11490000Y2222500D03*
D11*
X13970000Y4762500D03*
X24130000Y4762500D03*
D12*
X19050000Y4762500D03*
D13*
X15240000Y2222500D03*
X21590000Y-317500D03*
D14*
X25340000Y-317500D03*
X25777500Y30797500D03*
D11*
X28257500Y33337500D03*
X38417500Y33337500D03*
D12*
X33337500Y33337500D03*
D13*
X29527500Y30797500D03*
X35877500Y28257500D03*
D14*
X39627500Y28257500D03*
X25777500Y49847500D03*
D11*
X28257500Y52387500D03*
X38417500Y52387500D03*
D12*
X33337500Y52387500D03*
D13*
X29527500Y49847500D03*
X35877500Y47307500D03*
D14*
X39627500Y47307500D03*
X25777500Y68897500D03*
D11*
X28257500Y71437500D03*
X38417500Y71437500D03*
D12*
X33337500Y71437500D03*
D13*
X29527500Y68897500D03*
X35877500Y66357500D03*
D14*
X39627500Y66357500D03*
X-7560000Y-2540000D03*
D11*
X-5080000Y0D03*
X5080000Y0D03*
D12*
X0Y0D03*
D13*
X-3810000Y-2540000D03*
X2540000Y-5080000D03*
D14*
X6290000Y-5080000D03*
X6727500Y26035000D03*
D11*
X9207500Y28575000D03*
X19367500Y28575000D03*
D12*
X14287500Y28575000D03*
D13*
X10477500Y26035000D03*
X16827500Y23495000D03*
D14*
X20577500Y23495000D03*
X6727500Y45085000D03*
D11*
X9207500Y47625000D03*
X19367500Y47625000D03*
D12*
X14287500Y47625000D03*
D13*
X10477500Y45085000D03*
X16827500Y42545000D03*
D14*
X20577500Y42545000D03*
X6727500Y64135000D03*
D11*
X9207500Y66675000D03*
X19367500Y66675000D03*
D12*
X14287500Y66675000D03*
D13*
X10477500Y64135000D03*
X16827500Y61595000D03*
D14*
X20577500Y61595000D03*
D15*
X2381300Y11430000D03*
X2381300Y13970000D03*
X2381300Y16510000D03*
D16*
X2381300Y19050000D03*
D15*
X2381300Y25558800D03*
X2381300Y28098800D03*
X2381300Y30638800D03*
X2381300Y33178800D03*
D16*
X2381300Y35718800D03*
D17*
X114300000Y50006200D03*
X114300000Y53306200D03*
X95250000Y29493800D03*
X95250000Y26193800D03*
X95250000Y45243800D03*
X95250000Y48543800D03*
X95250000Y64293800D03*
X95250000Y67593800D03*
X114300000Y30956200D03*
X114300000Y34256200D03*
X76200000Y35718800D03*
X76200000Y39018800D03*
X76200000Y54768800D03*
X76200000Y58068800D03*
X76200000Y73818800D03*
X76200000Y77118800D03*
X42862500Y11906200D03*
X42862500Y15206200D03*
X57150000Y40481200D03*
X57150000Y43781200D03*
X57150000Y59531200D03*
X57150000Y62831200D03*
X57150000Y78581200D03*
X57150000Y81881200D03*
X23812500Y7143800D03*
X23812500Y10443800D03*
X38100000Y35718800D03*
X38100000Y39018800D03*
X38100000Y54768800D03*
X38100000Y58068800D03*
X38100000Y73818800D03*
X38100000Y77118800D03*
X4762500Y2381300D03*
X4762500Y5681300D03*
X19050000Y30956200D03*
X19050000Y34256200D03*
X19050000Y50006200D03*
X19050000Y53306200D03*
X19050000Y69056200D03*
X19050000Y72356200D03*
M02*
