G04 #@! TF.GenerationSoftware,KiCad,Pcbnew,5.1.10-88a1d61d58~88~ubuntu18.04.1*
G04 #@! TF.CreationDate,2021-07-26T22:38:52+03:00*
G04 #@! TF.ProjectId,pcb,7063622e-6b69-4636-9164-5f7063625858,rev?*
G04 #@! TF.SameCoordinates,Original*
G04 #@! TF.FileFunction,Legend,Top*
G04 #@! TF.FilePolarity,Positive*
%FSLAX46Y46*%
G04 Gerber Fmt 4.6, Leading zero omitted, Abs format (unit mm)*
G04 Created by KiCad (PCBNEW 5.1.10-88a1d61d58~88~ubuntu18.04.1) date 2021-07-26 22:38:52*
%MOMM*%
%LPD*%
G01*
G04 APERTURE LIST*
%ADD10C,0.150000*%
%ADD11C,0.120000*%
G04 APERTURE END LIST*
D10*
X102538000Y40625000D02*
X102538000Y41625000D01*
X103538000Y54625000D02*
X102538000Y54625000D01*
X102538000Y40625000D02*
X103538000Y40625000D01*
X102538000Y53625000D02*
X102538000Y54625000D01*
X116538000Y54625000D02*
X116538000Y53625000D01*
X115538000Y40625000D02*
X116538000Y40625000D01*
X116538000Y54625000D02*
X115538000Y54625000D01*
X116538000Y41625000D02*
X116538000Y40625000D01*
X83487500Y16812500D02*
X83487500Y17812500D01*
X84487500Y30812500D02*
X83487500Y30812500D01*
X83487500Y16812500D02*
X84487500Y16812500D01*
X83487500Y29812500D02*
X83487500Y30812500D01*
X97487500Y30812500D02*
X97487500Y29812500D01*
X96487500Y16812500D02*
X97487500Y16812500D01*
X97487500Y30812500D02*
X96487500Y30812500D01*
X97487500Y17812500D02*
X97487500Y16812500D01*
X83487500Y35862500D02*
X83487500Y36862500D01*
X84487500Y49862500D02*
X83487500Y49862500D01*
X83487500Y35862500D02*
X84487500Y35862500D01*
X83487500Y48862500D02*
X83487500Y49862500D01*
X97487500Y49862500D02*
X97487500Y48862500D01*
X96487500Y35862500D02*
X97487500Y35862500D01*
X97487500Y49862500D02*
X96487500Y49862500D01*
X97487500Y36862500D02*
X97487500Y35862500D01*
X83487500Y54912500D02*
X83487500Y55912500D01*
X84487500Y68912500D02*
X83487500Y68912500D01*
X83487500Y54912500D02*
X84487500Y54912500D01*
X83487500Y67912500D02*
X83487500Y68912500D01*
X97487500Y68912500D02*
X97487500Y67912500D01*
X96487500Y54912500D02*
X97487500Y54912500D01*
X97487500Y68912500D02*
X96487500Y68912500D01*
X97487500Y55912500D02*
X97487500Y54912500D01*
X102538000Y21575000D02*
X102538000Y22575000D01*
X103538000Y35575000D02*
X102538000Y35575000D01*
X102538000Y21575000D02*
X103538000Y21575000D01*
X102538000Y34575000D02*
X102538000Y35575000D01*
X116538000Y35575000D02*
X116538000Y34575000D01*
X115538000Y21575000D02*
X116538000Y21575000D01*
X116538000Y35575000D02*
X115538000Y35575000D01*
X116538000Y22575000D02*
X116538000Y21575000D01*
X64437500Y26337500D02*
X64437500Y27337500D01*
X65437500Y40337500D02*
X64437500Y40337500D01*
X64437500Y26337500D02*
X65437500Y26337500D01*
X64437500Y39337500D02*
X64437500Y40337500D01*
X78437500Y40337500D02*
X78437500Y39337500D01*
X77437500Y26337500D02*
X78437500Y26337500D01*
X78437500Y40337500D02*
X77437500Y40337500D01*
X78437500Y27337500D02*
X78437500Y26337500D01*
X64437500Y45387500D02*
X64437500Y46387500D01*
X65437500Y59387500D02*
X64437500Y59387500D01*
X64437500Y45387500D02*
X65437500Y45387500D01*
X64437500Y58387500D02*
X64437500Y59387500D01*
X78437500Y59387500D02*
X78437500Y58387500D01*
X77437500Y45387500D02*
X78437500Y45387500D01*
X78437500Y59387500D02*
X77437500Y59387500D01*
X78437500Y46387500D02*
X78437500Y45387500D01*
X64437500Y64437500D02*
X64437500Y65437500D01*
X65437500Y78437500D02*
X64437500Y78437500D01*
X64437500Y64437500D02*
X65437500Y64437500D01*
X64437500Y77437500D02*
X64437500Y78437500D01*
X78437500Y78437500D02*
X78437500Y77437500D01*
X77437500Y64437500D02*
X78437500Y64437500D01*
X78437500Y78437500D02*
X77437500Y78437500D01*
X78437500Y65437500D02*
X78437500Y64437500D01*
X31100000Y2525000D02*
X31100000Y3525000D01*
X32100000Y16525000D02*
X31100000Y16525000D01*
X31100000Y2525000D02*
X32100000Y2525000D01*
X31100000Y15525000D02*
X31100000Y16525000D01*
X45100000Y16525000D02*
X45100000Y15525000D01*
X44100000Y2525000D02*
X45100000Y2525000D01*
X45100000Y16525000D02*
X44100000Y16525000D01*
X45100000Y3525000D02*
X45100000Y2525000D01*
X45387500Y31100000D02*
X45387500Y32100000D01*
X46387500Y45100000D02*
X45387500Y45100000D01*
X45387500Y31100000D02*
X46387500Y31100000D01*
X45387500Y44100000D02*
X45387500Y45100000D01*
X59387500Y45100000D02*
X59387500Y44100000D01*
X58387500Y31100000D02*
X59387500Y31100000D01*
X59387500Y45100000D02*
X58387500Y45100000D01*
X59387500Y32100000D02*
X59387500Y31100000D01*
X45387500Y50150000D02*
X45387500Y51150000D01*
X46387500Y64150000D02*
X45387500Y64150000D01*
X45387500Y50150000D02*
X46387500Y50150000D01*
X45387500Y63150000D02*
X45387500Y64150000D01*
X59387500Y64150000D02*
X59387500Y63150000D01*
X58387500Y50150000D02*
X59387500Y50150000D01*
X59387500Y64150000D02*
X58387500Y64150000D01*
X59387500Y51150000D02*
X59387500Y50150000D01*
X45387500Y69200000D02*
X45387500Y70200000D01*
X46387500Y83200000D02*
X45387500Y83200000D01*
X45387500Y69200000D02*
X46387500Y69200000D01*
X45387500Y82200000D02*
X45387500Y83200000D01*
X59387500Y83200000D02*
X59387500Y82200000D01*
X58387500Y69200000D02*
X59387500Y69200000D01*
X59387500Y83200000D02*
X58387500Y83200000D01*
X59387500Y70200000D02*
X59387500Y69200000D01*
X12050000Y-2237500D02*
X12050000Y-1237500D01*
X13050000Y11762500D02*
X12050000Y11762500D01*
X12050000Y-2237500D02*
X13050000Y-2237500D01*
X12050000Y10762500D02*
X12050000Y11762500D01*
X26050000Y11762500D02*
X26050000Y10762500D01*
X25050000Y-2237500D02*
X26050000Y-2237500D01*
X26050000Y11762500D02*
X25050000Y11762500D01*
X26050000Y-1237500D02*
X26050000Y-2237500D01*
X26337500Y26337500D02*
X26337500Y27337500D01*
X27337500Y40337500D02*
X26337500Y40337500D01*
X26337500Y26337500D02*
X27337500Y26337500D01*
X26337500Y39337500D02*
X26337500Y40337500D01*
X40337500Y40337500D02*
X40337500Y39337500D01*
X39337500Y26337500D02*
X40337500Y26337500D01*
X40337500Y40337500D02*
X39337500Y40337500D01*
X40337500Y27337500D02*
X40337500Y26337500D01*
X26337500Y45387500D02*
X26337500Y46387500D01*
X27337500Y59387500D02*
X26337500Y59387500D01*
X26337500Y45387500D02*
X27337500Y45387500D01*
X26337500Y58387500D02*
X26337500Y59387500D01*
X40337500Y59387500D02*
X40337500Y58387500D01*
X39337500Y45387500D02*
X40337500Y45387500D01*
X40337500Y59387500D02*
X39337500Y59387500D01*
X40337500Y46387500D02*
X40337500Y45387500D01*
X26337500Y64437500D02*
X26337500Y65437500D01*
X27337500Y78437500D02*
X26337500Y78437500D01*
X26337500Y64437500D02*
X27337500Y64437500D01*
X26337500Y77437500D02*
X26337500Y78437500D01*
X40337500Y78437500D02*
X40337500Y77437500D01*
X39337500Y64437500D02*
X40337500Y64437500D01*
X40337500Y78437500D02*
X39337500Y78437500D01*
X40337500Y65437500D02*
X40337500Y64437500D01*
X-7000000Y-7000000D02*
X-7000000Y-6000000D01*
X-6000000Y7000000D02*
X-7000000Y7000000D01*
X-7000000Y-7000000D02*
X-6000000Y-7000000D01*
X-7000000Y6000000D02*
X-7000000Y7000000D01*
X7000000Y7000000D02*
X7000000Y6000000D01*
X6000000Y-7000000D02*
X7000000Y-7000000D01*
X7000000Y7000000D02*
X6000000Y7000000D01*
X7000000Y-6000000D02*
X7000000Y-7000000D01*
X7287500Y21575000D02*
X7287500Y22575000D01*
X8287500Y35575000D02*
X7287500Y35575000D01*
X7287500Y21575000D02*
X8287500Y21575000D01*
X7287500Y34575000D02*
X7287500Y35575000D01*
X21287500Y35575000D02*
X21287500Y34575000D01*
X20287500Y21575000D02*
X21287500Y21575000D01*
X21287500Y35575000D02*
X20287500Y35575000D01*
X21287500Y22575000D02*
X21287500Y21575000D01*
X7287500Y40625000D02*
X7287500Y41625000D01*
X8287500Y54625000D02*
X7287500Y54625000D01*
X7287500Y40625000D02*
X8287500Y40625000D01*
X7287500Y53625000D02*
X7287500Y54625000D01*
X21287500Y54625000D02*
X21287500Y53625000D01*
X20287500Y40625000D02*
X21287500Y40625000D01*
X21287500Y54625000D02*
X20287500Y54625000D01*
X21287500Y41625000D02*
X21287500Y40625000D01*
X7287500Y59675000D02*
X7287500Y60675000D01*
X8287500Y73675000D02*
X7287500Y73675000D01*
X7287500Y59675000D02*
X8287500Y59675000D01*
X7287500Y72675000D02*
X7287500Y73675000D01*
X21287500Y73675000D02*
X21287500Y72675000D01*
X20287500Y59675000D02*
X21287500Y59675000D01*
X21287500Y73675000D02*
X20287500Y73675000D01*
X21287500Y60675000D02*
X21287500Y59675000D01*
X114618000Y40640000D02*
X114618000Y41021000D01*
X105728000Y40640000D02*
X114618000Y40640000D01*
X103188000Y43180000D02*
X103188000Y43561000D01*
X103569000Y46990000D02*
X103188000Y46990000D01*
X107073838Y46990000D02*
X105347000Y46990000D01*
X114618000Y45085000D02*
X109538000Y45085000D01*
X114618000Y44069000D02*
X114618000Y45085000D01*
X103188000Y46609000D02*
X103188000Y46990000D01*
X107073838Y47008960D02*
G75*
G03*
X109538000Y45085000I2464162J616040D01*
G01*
X103188000Y43180000D02*
G75*
G03*
X105728000Y40640000I2540000J0D01*
G01*
X95567500Y16827500D02*
X95567500Y17208500D01*
X86677500Y16827500D02*
X95567500Y16827500D01*
X84137500Y19367500D02*
X84137500Y19748500D01*
X84518500Y23177500D02*
X84137500Y23177500D01*
X88023338Y23177500D02*
X86296500Y23177500D01*
X95567500Y21272500D02*
X90487500Y21272500D01*
X95567500Y20256500D02*
X95567500Y21272500D01*
X84137500Y22796500D02*
X84137500Y23177500D01*
X88023338Y23196460D02*
G75*
G03*
X90487500Y21272500I2464162J616040D01*
G01*
X84137500Y19367500D02*
G75*
G03*
X86677500Y16827500I2540000J0D01*
G01*
X95567500Y35877500D02*
X95567500Y36258500D01*
X86677500Y35877500D02*
X95567500Y35877500D01*
X84137500Y38417500D02*
X84137500Y38798500D01*
X84518500Y42227500D02*
X84137500Y42227500D01*
X88023338Y42227500D02*
X86296500Y42227500D01*
X95567500Y40322500D02*
X90487500Y40322500D01*
X95567500Y39306500D02*
X95567500Y40322500D01*
X84137500Y41846500D02*
X84137500Y42227500D01*
X88023338Y42246460D02*
G75*
G03*
X90487500Y40322500I2464162J616040D01*
G01*
X84137500Y38417500D02*
G75*
G03*
X86677500Y35877500I2540000J0D01*
G01*
X95567500Y54927500D02*
X95567500Y55308500D01*
X86677500Y54927500D02*
X95567500Y54927500D01*
X84137500Y57467500D02*
X84137500Y57848500D01*
X84518500Y61277500D02*
X84137500Y61277500D01*
X88023338Y61277500D02*
X86296500Y61277500D01*
X95567500Y59372500D02*
X90487500Y59372500D01*
X95567500Y58356500D02*
X95567500Y59372500D01*
X84137500Y60896500D02*
X84137500Y61277500D01*
X88023338Y61296460D02*
G75*
G03*
X90487500Y59372500I2464162J616040D01*
G01*
X84137500Y57467500D02*
G75*
G03*
X86677500Y54927500I2540000J0D01*
G01*
X114618000Y21590000D02*
X114618000Y21971000D01*
X105728000Y21590000D02*
X114618000Y21590000D01*
X103188000Y24130000D02*
X103188000Y24511000D01*
X103569000Y27940000D02*
X103188000Y27940000D01*
X107073838Y27940000D02*
X105347000Y27940000D01*
X114618000Y26035000D02*
X109538000Y26035000D01*
X114618000Y25019000D02*
X114618000Y26035000D01*
X103188000Y27559000D02*
X103188000Y27940000D01*
X107073838Y27958960D02*
G75*
G03*
X109538000Y26035000I2464162J616040D01*
G01*
X103188000Y24130000D02*
G75*
G03*
X105728000Y21590000I2540000J0D01*
G01*
X76517500Y26352500D02*
X76517500Y26733500D01*
X67627500Y26352500D02*
X76517500Y26352500D01*
X65087500Y28892500D02*
X65087500Y29273500D01*
X65468500Y32702500D02*
X65087500Y32702500D01*
X68973338Y32702500D02*
X67246500Y32702500D01*
X76517500Y30797500D02*
X71437500Y30797500D01*
X76517500Y29781500D02*
X76517500Y30797500D01*
X65087500Y32321500D02*
X65087500Y32702500D01*
X68973338Y32721460D02*
G75*
G03*
X71437500Y30797500I2464162J616040D01*
G01*
X65087500Y28892500D02*
G75*
G03*
X67627500Y26352500I2540000J0D01*
G01*
X76517500Y45402500D02*
X76517500Y45783500D01*
X67627500Y45402500D02*
X76517500Y45402500D01*
X65087500Y47942500D02*
X65087500Y48323500D01*
X65468500Y51752500D02*
X65087500Y51752500D01*
X68973338Y51752500D02*
X67246500Y51752500D01*
X76517500Y49847500D02*
X71437500Y49847500D01*
X76517500Y48831500D02*
X76517500Y49847500D01*
X65087500Y51371500D02*
X65087500Y51752500D01*
X68973338Y51771460D02*
G75*
G03*
X71437500Y49847500I2464162J616040D01*
G01*
X65087500Y47942500D02*
G75*
G03*
X67627500Y45402500I2540000J0D01*
G01*
X76517500Y64452500D02*
X76517500Y64833500D01*
X67627500Y64452500D02*
X76517500Y64452500D01*
X65087500Y66992500D02*
X65087500Y67373500D01*
X65468500Y70802500D02*
X65087500Y70802500D01*
X68973338Y70802500D02*
X67246500Y70802500D01*
X76517500Y68897500D02*
X71437500Y68897500D01*
X76517500Y67881500D02*
X76517500Y68897500D01*
X65087500Y70421500D02*
X65087500Y70802500D01*
X68973338Y70821460D02*
G75*
G03*
X71437500Y68897500I2464162J616040D01*
G01*
X65087500Y66992500D02*
G75*
G03*
X67627500Y64452500I2540000J0D01*
G01*
X43180000Y2540000D02*
X43180000Y2921000D01*
X34290000Y2540000D02*
X43180000Y2540000D01*
X31750000Y5080000D02*
X31750000Y5461000D01*
X32131000Y8890000D02*
X31750000Y8890000D01*
X35635838Y8890000D02*
X33909000Y8890000D01*
X43180000Y6985000D02*
X38100000Y6985000D01*
X43180000Y5969000D02*
X43180000Y6985000D01*
X31750000Y8509000D02*
X31750000Y8890000D01*
X35635838Y8908960D02*
G75*
G03*
X38100000Y6985000I2464162J616040D01*
G01*
X31750000Y5080000D02*
G75*
G03*
X34290000Y2540000I2540000J0D01*
G01*
X57467500Y31115000D02*
X57467500Y31496000D01*
X48577500Y31115000D02*
X57467500Y31115000D01*
X46037500Y33655000D02*
X46037500Y34036000D01*
X46418500Y37465000D02*
X46037500Y37465000D01*
X49923338Y37465000D02*
X48196500Y37465000D01*
X57467500Y35560000D02*
X52387500Y35560000D01*
X57467500Y34544000D02*
X57467500Y35560000D01*
X46037500Y37084000D02*
X46037500Y37465000D01*
X49923338Y37483960D02*
G75*
G03*
X52387500Y35560000I2464162J616040D01*
G01*
X46037500Y33655000D02*
G75*
G03*
X48577500Y31115000I2540000J0D01*
G01*
X57467500Y50165000D02*
X57467500Y50546000D01*
X48577500Y50165000D02*
X57467500Y50165000D01*
X46037500Y52705000D02*
X46037500Y53086000D01*
X46418500Y56515000D02*
X46037500Y56515000D01*
X49923338Y56515000D02*
X48196500Y56515000D01*
X57467500Y54610000D02*
X52387500Y54610000D01*
X57467500Y53594000D02*
X57467500Y54610000D01*
X46037500Y56134000D02*
X46037500Y56515000D01*
X49923338Y56533960D02*
G75*
G03*
X52387500Y54610000I2464162J616040D01*
G01*
X46037500Y52705000D02*
G75*
G03*
X48577500Y50165000I2540000J0D01*
G01*
X57467500Y69215000D02*
X57467500Y69596000D01*
X48577500Y69215000D02*
X57467500Y69215000D01*
X46037500Y71755000D02*
X46037500Y72136000D01*
X46418500Y75565000D02*
X46037500Y75565000D01*
X49923338Y75565000D02*
X48196500Y75565000D01*
X57467500Y73660000D02*
X52387500Y73660000D01*
X57467500Y72644000D02*
X57467500Y73660000D01*
X46037500Y75184000D02*
X46037500Y75565000D01*
X49923338Y75583960D02*
G75*
G03*
X52387500Y73660000I2464162J616040D01*
G01*
X46037500Y71755000D02*
G75*
G03*
X48577500Y69215000I2540000J0D01*
G01*
X24130000Y-2222500D02*
X24130000Y-1841500D01*
X15240000Y-2222500D02*
X24130000Y-2222500D01*
X12700000Y317500D02*
X12700000Y698500D01*
X13081000Y4127500D02*
X12700000Y4127500D01*
X16585838Y4127500D02*
X14859000Y4127500D01*
X24130000Y2222500D02*
X19050000Y2222500D01*
X24130000Y1206500D02*
X24130000Y2222500D01*
X12700000Y3746500D02*
X12700000Y4127500D01*
X16585838Y4146460D02*
G75*
G03*
X19050000Y2222500I2464162J616040D01*
G01*
X12700000Y317500D02*
G75*
G03*
X15240000Y-2222500I2540000J0D01*
G01*
X38417500Y26352500D02*
X38417500Y26733500D01*
X29527500Y26352500D02*
X38417500Y26352500D01*
X26987500Y28892500D02*
X26987500Y29273500D01*
X27368500Y32702500D02*
X26987500Y32702500D01*
X30873338Y32702500D02*
X29146500Y32702500D01*
X38417500Y30797500D02*
X33337500Y30797500D01*
X38417500Y29781500D02*
X38417500Y30797500D01*
X26987500Y32321500D02*
X26987500Y32702500D01*
X30873338Y32721460D02*
G75*
G03*
X33337500Y30797500I2464162J616040D01*
G01*
X26987500Y28892500D02*
G75*
G03*
X29527500Y26352500I2540000J0D01*
G01*
X38417500Y45402500D02*
X38417500Y45783500D01*
X29527500Y45402500D02*
X38417500Y45402500D01*
X26987500Y47942500D02*
X26987500Y48323500D01*
X27368500Y51752500D02*
X26987500Y51752500D01*
X30873338Y51752500D02*
X29146500Y51752500D01*
X38417500Y49847500D02*
X33337500Y49847500D01*
X38417500Y48831500D02*
X38417500Y49847500D01*
X26987500Y51371500D02*
X26987500Y51752500D01*
X30873338Y51771460D02*
G75*
G03*
X33337500Y49847500I2464162J616040D01*
G01*
X26987500Y47942500D02*
G75*
G03*
X29527500Y45402500I2540000J0D01*
G01*
X38417500Y64452500D02*
X38417500Y64833500D01*
X29527500Y64452500D02*
X38417500Y64452500D01*
X26987500Y66992500D02*
X26987500Y67373500D01*
X27368500Y70802500D02*
X26987500Y70802500D01*
X30873338Y70802500D02*
X29146500Y70802500D01*
X38417500Y68897500D02*
X33337500Y68897500D01*
X38417500Y67881500D02*
X38417500Y68897500D01*
X26987500Y70421500D02*
X26987500Y70802500D01*
X30873338Y70821460D02*
G75*
G03*
X33337500Y68897500I2464162J616040D01*
G01*
X26987500Y66992500D02*
G75*
G03*
X29527500Y64452500I2540000J0D01*
G01*
X5080000Y-6985000D02*
X5080000Y-6604000D01*
X-3810000Y-6985000D02*
X5080000Y-6985000D01*
X-6350000Y-4445000D02*
X-6350000Y-4064000D01*
X-5969000Y-635000D02*
X-6350000Y-635000D01*
X-2464162Y-635000D02*
X-4191000Y-635000D01*
X5080000Y-2540000D02*
X0Y-2540000D01*
X5080000Y-3556000D02*
X5080000Y-2540000D01*
X-6350000Y-1016000D02*
X-6350000Y-635000D01*
X-2464162Y-616040D02*
G75*
G03*
X0Y-2540000I2464162J616040D01*
G01*
X-6350000Y-4445000D02*
G75*
G03*
X-3810000Y-6985000I2540000J0D01*
G01*
X19367500Y21590000D02*
X19367500Y21971000D01*
X10477500Y21590000D02*
X19367500Y21590000D01*
X7937500Y24130000D02*
X7937500Y24511000D01*
X8318500Y27940000D02*
X7937500Y27940000D01*
X11823338Y27940000D02*
X10096500Y27940000D01*
X19367500Y26035000D02*
X14287500Y26035000D01*
X19367500Y25019000D02*
X19367500Y26035000D01*
X7937500Y27559000D02*
X7937500Y27940000D01*
X11823338Y27958960D02*
G75*
G03*
X14287500Y26035000I2464162J616040D01*
G01*
X7937500Y24130000D02*
G75*
G03*
X10477500Y21590000I2540000J0D01*
G01*
X19367500Y40640000D02*
X19367500Y41021000D01*
X10477500Y40640000D02*
X19367500Y40640000D01*
X7937500Y43180000D02*
X7937500Y43561000D01*
X8318500Y46990000D02*
X7937500Y46990000D01*
X11823338Y46990000D02*
X10096500Y46990000D01*
X19367500Y45085000D02*
X14287500Y45085000D01*
X19367500Y44069000D02*
X19367500Y45085000D01*
X7937500Y46609000D02*
X7937500Y46990000D01*
X11823338Y47008960D02*
G75*
G03*
X14287500Y45085000I2464162J616040D01*
G01*
X7937500Y43180000D02*
G75*
G03*
X10477500Y40640000I2540000J0D01*
G01*
X19367500Y59690000D02*
X19367500Y60071000D01*
X10477500Y59690000D02*
X19367500Y59690000D01*
X7937500Y62230000D02*
X7937500Y62611000D01*
X8318500Y66040000D02*
X7937500Y66040000D01*
X11823338Y66040000D02*
X10096500Y66040000D01*
X19367500Y64135000D02*
X14287500Y64135000D01*
X19367500Y63119000D02*
X19367500Y64135000D01*
X7937500Y65659000D02*
X7937500Y66040000D01*
X11823338Y66058960D02*
G75*
G03*
X14287500Y64135000I2464162J616040D01*
G01*
X7937500Y62230000D02*
G75*
G03*
X10477500Y59690000I2540000J0D01*
G01*
D11*
X1051300Y20380000D02*
X2381300Y20380000D01*
X1051300Y19050000D02*
X1051300Y20380000D01*
X1051300Y17780000D02*
X3711300Y17780000D01*
X3711300Y17780000D02*
X3711300Y10100000D01*
X1051300Y17780000D02*
X1051300Y10100000D01*
X1051300Y10100000D02*
X3711300Y10100000D01*
X1051300Y37048800D02*
X2381300Y37048800D01*
X1051300Y35718800D02*
X1051300Y37048800D01*
X1051300Y34448800D02*
X3711300Y34448800D01*
X3711300Y34448800D02*
X3711300Y24228800D01*
X1051300Y34448800D02*
X1051300Y24228800D01*
X1051300Y24228800D02*
X3711300Y24228800D01*
X115300000Y53906200D02*
X115300000Y50006200D01*
X113300000Y53906200D02*
X113300000Y50006200D01*
X115300000Y53906200D02*
X113300000Y53906200D01*
X96250000Y30093800D02*
X94250000Y30093800D01*
X94250000Y30093800D02*
X94250000Y26193800D01*
X96250000Y30093800D02*
X96250000Y26193800D01*
X96250000Y49143800D02*
X96250000Y45243800D01*
X94250000Y49143800D02*
X94250000Y45243800D01*
X96250000Y49143800D02*
X94250000Y49143800D01*
X96250000Y68193800D02*
X96250000Y64293800D01*
X94250000Y68193800D02*
X94250000Y64293800D01*
X96250000Y68193800D02*
X94250000Y68193800D01*
X115300000Y34856200D02*
X115300000Y30956200D01*
X113300000Y34856200D02*
X113300000Y30956200D01*
X115300000Y34856200D02*
X113300000Y34856200D01*
X77200000Y39618800D02*
X77200000Y35718800D01*
X75200000Y39618800D02*
X75200000Y35718800D01*
X77200000Y39618800D02*
X75200000Y39618800D01*
X77200000Y58668800D02*
X77200000Y54768800D01*
X75200000Y58668800D02*
X75200000Y54768800D01*
X77200000Y58668800D02*
X75200000Y58668800D01*
X77200000Y77718800D02*
X77200000Y73818800D01*
X75200000Y77718800D02*
X75200000Y73818800D01*
X77200000Y77718800D02*
X75200000Y77718800D01*
X43862500Y15806200D02*
X43862500Y11906200D01*
X41862500Y15806200D02*
X41862500Y11906200D01*
X43862500Y15806200D02*
X41862500Y15806200D01*
X58150000Y44381200D02*
X58150000Y40481200D01*
X56150000Y44381200D02*
X56150000Y40481200D01*
X58150000Y44381200D02*
X56150000Y44381200D01*
X58150000Y63431200D02*
X58150000Y59531200D01*
X56150000Y63431200D02*
X56150000Y59531200D01*
X58150000Y63431200D02*
X56150000Y63431200D01*
X58150000Y82481200D02*
X58150000Y78581200D01*
X56150000Y82481200D02*
X56150000Y78581200D01*
X58150000Y82481200D02*
X56150000Y82481200D01*
X24812500Y11043800D02*
X24812500Y7143800D01*
X22812500Y11043800D02*
X22812500Y7143800D01*
X24812500Y11043800D02*
X22812500Y11043800D01*
X39100000Y39618800D02*
X39100000Y35718800D01*
X37100000Y39618800D02*
X37100000Y35718800D01*
X39100000Y39618800D02*
X37100000Y39618800D01*
X39100000Y58668800D02*
X39100000Y54768800D01*
X37100000Y58668800D02*
X37100000Y54768800D01*
X39100000Y58668800D02*
X37100000Y58668800D01*
X39100000Y77718800D02*
X39100000Y73818800D01*
X37100000Y77718800D02*
X37100000Y73818800D01*
X39100000Y77718800D02*
X37100000Y77718800D01*
X5762500Y6281300D02*
X5762500Y2381300D01*
X3762500Y6281300D02*
X3762500Y2381300D01*
X5762500Y6281300D02*
X3762500Y6281300D01*
X20050000Y34856200D02*
X20050000Y30956200D01*
X18050000Y34856200D02*
X18050000Y30956200D01*
X20050000Y34856200D02*
X18050000Y34856200D01*
X20050000Y53906200D02*
X20050000Y50006200D01*
X18050000Y53906200D02*
X18050000Y50006200D01*
X20050000Y53906200D02*
X18050000Y53906200D01*
X20050000Y72956200D02*
X20050000Y69056200D01*
X18050000Y72956200D02*
X18050000Y69056200D01*
X20050000Y72956200D02*
X18050000Y72956200D01*
D10*
X107728476Y38965238D02*
X107871333Y38917619D01*
X108109428Y38917619D01*
X108204666Y38965238D01*
X108252285Y39012857D01*
X108299904Y39108095D01*
X108299904Y39203333D01*
X108252285Y39298571D01*
X108204666Y39346190D01*
X108109428Y39393809D01*
X107918952Y39441428D01*
X107823714Y39489047D01*
X107776095Y39536666D01*
X107728476Y39631904D01*
X107728476Y39727142D01*
X107776095Y39822380D01*
X107823714Y39870000D01*
X107918952Y39917619D01*
X108157047Y39917619D01*
X108299904Y39870000D01*
X108633238Y39917619D02*
X108871333Y38917619D01*
X109061809Y39631904D01*
X109252285Y38917619D01*
X109490380Y39917619D01*
X109823714Y39822380D02*
X109871333Y39870000D01*
X109966571Y39917619D01*
X110204666Y39917619D01*
X110299904Y39870000D01*
X110347523Y39822380D01*
X110395142Y39727142D01*
X110395142Y39631904D01*
X110347523Y39489047D01*
X109776095Y38917619D01*
X110395142Y38917619D01*
X111014190Y39917619D02*
X111109428Y39917619D01*
X111204666Y39870000D01*
X111252285Y39822380D01*
X111299904Y39727142D01*
X111347523Y39536666D01*
X111347523Y39298571D01*
X111299904Y39108095D01*
X111252285Y39012857D01*
X111204666Y38965238D01*
X111109428Y38917619D01*
X111014190Y38917619D01*
X110918952Y38965238D01*
X110871333Y39012857D01*
X110823714Y39108095D01*
X110776095Y39298571D01*
X110776095Y39536666D01*
X110823714Y39727142D01*
X110871333Y39822380D01*
X110918952Y39870000D01*
X111014190Y39917619D01*
X88677976Y15152738D02*
X88820833Y15105119D01*
X89058928Y15105119D01*
X89154166Y15152738D01*
X89201785Y15200357D01*
X89249404Y15295595D01*
X89249404Y15390833D01*
X89201785Y15486071D01*
X89154166Y15533690D01*
X89058928Y15581309D01*
X88868452Y15628928D01*
X88773214Y15676547D01*
X88725595Y15724166D01*
X88677976Y15819404D01*
X88677976Y15914642D01*
X88725595Y16009880D01*
X88773214Y16057500D01*
X88868452Y16105119D01*
X89106547Y16105119D01*
X89249404Y16057500D01*
X89582738Y16105119D02*
X89820833Y15105119D01*
X90011309Y15819404D01*
X90201785Y15105119D01*
X90439880Y16105119D01*
X91344642Y15105119D02*
X90773214Y15105119D01*
X91058928Y15105119D02*
X91058928Y16105119D01*
X90963690Y15962261D01*
X90868452Y15867023D01*
X90773214Y15819404D01*
X91820833Y15105119D02*
X92011309Y15105119D01*
X92106547Y15152738D01*
X92154166Y15200357D01*
X92249404Y15343214D01*
X92297023Y15533690D01*
X92297023Y15914642D01*
X92249404Y16009880D01*
X92201785Y16057500D01*
X92106547Y16105119D01*
X91916071Y16105119D01*
X91820833Y16057500D01*
X91773214Y16009880D01*
X91725595Y15914642D01*
X91725595Y15676547D01*
X91773214Y15581309D01*
X91820833Y15533690D01*
X91916071Y15486071D01*
X92106547Y15486071D01*
X92201785Y15533690D01*
X92249404Y15581309D01*
X92297023Y15676547D01*
X88677976Y34202738D02*
X88820833Y34155119D01*
X89058928Y34155119D01*
X89154166Y34202738D01*
X89201785Y34250357D01*
X89249404Y34345595D01*
X89249404Y34440833D01*
X89201785Y34536071D01*
X89154166Y34583690D01*
X89058928Y34631309D01*
X88868452Y34678928D01*
X88773214Y34726547D01*
X88725595Y34774166D01*
X88677976Y34869404D01*
X88677976Y34964642D01*
X88725595Y35059880D01*
X88773214Y35107500D01*
X88868452Y35155119D01*
X89106547Y35155119D01*
X89249404Y35107500D01*
X89582738Y35155119D02*
X89820833Y34155119D01*
X90011309Y34869404D01*
X90201785Y34155119D01*
X90439880Y35155119D01*
X91344642Y34155119D02*
X90773214Y34155119D01*
X91058928Y34155119D02*
X91058928Y35155119D01*
X90963690Y35012261D01*
X90868452Y34917023D01*
X90773214Y34869404D01*
X91916071Y34726547D02*
X91820833Y34774166D01*
X91773214Y34821785D01*
X91725595Y34917023D01*
X91725595Y34964642D01*
X91773214Y35059880D01*
X91820833Y35107500D01*
X91916071Y35155119D01*
X92106547Y35155119D01*
X92201785Y35107500D01*
X92249404Y35059880D01*
X92297023Y34964642D01*
X92297023Y34917023D01*
X92249404Y34821785D01*
X92201785Y34774166D01*
X92106547Y34726547D01*
X91916071Y34726547D01*
X91820833Y34678928D01*
X91773214Y34631309D01*
X91725595Y34536071D01*
X91725595Y34345595D01*
X91773214Y34250357D01*
X91820833Y34202738D01*
X91916071Y34155119D01*
X92106547Y34155119D01*
X92201785Y34202738D01*
X92249404Y34250357D01*
X92297023Y34345595D01*
X92297023Y34536071D01*
X92249404Y34631309D01*
X92201785Y34678928D01*
X92106547Y34726547D01*
X88677976Y53252738D02*
X88820833Y53205119D01*
X89058928Y53205119D01*
X89154166Y53252738D01*
X89201785Y53300357D01*
X89249404Y53395595D01*
X89249404Y53490833D01*
X89201785Y53586071D01*
X89154166Y53633690D01*
X89058928Y53681309D01*
X88868452Y53728928D01*
X88773214Y53776547D01*
X88725595Y53824166D01*
X88677976Y53919404D01*
X88677976Y54014642D01*
X88725595Y54109880D01*
X88773214Y54157500D01*
X88868452Y54205119D01*
X89106547Y54205119D01*
X89249404Y54157500D01*
X89582738Y54205119D02*
X89820833Y53205119D01*
X90011309Y53919404D01*
X90201785Y53205119D01*
X90439880Y54205119D01*
X91344642Y53205119D02*
X90773214Y53205119D01*
X91058928Y53205119D02*
X91058928Y54205119D01*
X90963690Y54062261D01*
X90868452Y53967023D01*
X90773214Y53919404D01*
X91677976Y54205119D02*
X92344642Y54205119D01*
X91916071Y53205119D01*
X107728476Y19915238D02*
X107871333Y19867619D01*
X108109428Y19867619D01*
X108204666Y19915238D01*
X108252285Y19962857D01*
X108299904Y20058095D01*
X108299904Y20153333D01*
X108252285Y20248571D01*
X108204666Y20296190D01*
X108109428Y20343809D01*
X107918952Y20391428D01*
X107823714Y20439047D01*
X107776095Y20486666D01*
X107728476Y20581904D01*
X107728476Y20677142D01*
X107776095Y20772380D01*
X107823714Y20820000D01*
X107918952Y20867619D01*
X108157047Y20867619D01*
X108299904Y20820000D01*
X108633238Y20867619D02*
X108871333Y19867619D01*
X109061809Y20581904D01*
X109252285Y19867619D01*
X109490380Y20867619D01*
X110395142Y19867619D02*
X109823714Y19867619D01*
X110109428Y19867619D02*
X110109428Y20867619D01*
X110014190Y20724761D01*
X109918952Y20629523D01*
X109823714Y20581904D01*
X111252285Y20867619D02*
X111061809Y20867619D01*
X110966571Y20820000D01*
X110918952Y20772380D01*
X110823714Y20629523D01*
X110776095Y20439047D01*
X110776095Y20058095D01*
X110823714Y19962857D01*
X110871333Y19915238D01*
X110966571Y19867619D01*
X111157047Y19867619D01*
X111252285Y19915238D01*
X111299904Y19962857D01*
X111347523Y20058095D01*
X111347523Y20296190D01*
X111299904Y20391428D01*
X111252285Y20439047D01*
X111157047Y20486666D01*
X110966571Y20486666D01*
X110871333Y20439047D01*
X110823714Y20391428D01*
X110776095Y20296190D01*
X69627976Y24677738D02*
X69770833Y24630119D01*
X70008928Y24630119D01*
X70104166Y24677738D01*
X70151785Y24725357D01*
X70199404Y24820595D01*
X70199404Y24915833D01*
X70151785Y25011071D01*
X70104166Y25058690D01*
X70008928Y25106309D01*
X69818452Y25153928D01*
X69723214Y25201547D01*
X69675595Y25249166D01*
X69627976Y25344404D01*
X69627976Y25439642D01*
X69675595Y25534880D01*
X69723214Y25582500D01*
X69818452Y25630119D01*
X70056547Y25630119D01*
X70199404Y25582500D01*
X70532738Y25630119D02*
X70770833Y24630119D01*
X70961309Y25344404D01*
X71151785Y24630119D01*
X71389880Y25630119D01*
X72294642Y24630119D02*
X71723214Y24630119D01*
X72008928Y24630119D02*
X72008928Y25630119D01*
X71913690Y25487261D01*
X71818452Y25392023D01*
X71723214Y25344404D01*
X73199404Y25630119D02*
X72723214Y25630119D01*
X72675595Y25153928D01*
X72723214Y25201547D01*
X72818452Y25249166D01*
X73056547Y25249166D01*
X73151785Y25201547D01*
X73199404Y25153928D01*
X73247023Y25058690D01*
X73247023Y24820595D01*
X73199404Y24725357D01*
X73151785Y24677738D01*
X73056547Y24630119D01*
X72818452Y24630119D01*
X72723214Y24677738D01*
X72675595Y24725357D01*
X69627976Y43727738D02*
X69770833Y43680119D01*
X70008928Y43680119D01*
X70104166Y43727738D01*
X70151785Y43775357D01*
X70199404Y43870595D01*
X70199404Y43965833D01*
X70151785Y44061071D01*
X70104166Y44108690D01*
X70008928Y44156309D01*
X69818452Y44203928D01*
X69723214Y44251547D01*
X69675595Y44299166D01*
X69627976Y44394404D01*
X69627976Y44489642D01*
X69675595Y44584880D01*
X69723214Y44632500D01*
X69818452Y44680119D01*
X70056547Y44680119D01*
X70199404Y44632500D01*
X70532738Y44680119D02*
X70770833Y43680119D01*
X70961309Y44394404D01*
X71151785Y43680119D01*
X71389880Y44680119D01*
X72294642Y43680119D02*
X71723214Y43680119D01*
X72008928Y43680119D02*
X72008928Y44680119D01*
X71913690Y44537261D01*
X71818452Y44442023D01*
X71723214Y44394404D01*
X73151785Y44346785D02*
X73151785Y43680119D01*
X72913690Y44727738D02*
X72675595Y44013452D01*
X73294642Y44013452D01*
X69627976Y62777738D02*
X69770833Y62730119D01*
X70008928Y62730119D01*
X70104166Y62777738D01*
X70151785Y62825357D01*
X70199404Y62920595D01*
X70199404Y63015833D01*
X70151785Y63111071D01*
X70104166Y63158690D01*
X70008928Y63206309D01*
X69818452Y63253928D01*
X69723214Y63301547D01*
X69675595Y63349166D01*
X69627976Y63444404D01*
X69627976Y63539642D01*
X69675595Y63634880D01*
X69723214Y63682500D01*
X69818452Y63730119D01*
X70056547Y63730119D01*
X70199404Y63682500D01*
X70532738Y63730119D02*
X70770833Y62730119D01*
X70961309Y63444404D01*
X71151785Y62730119D01*
X71389880Y63730119D01*
X72294642Y62730119D02*
X71723214Y62730119D01*
X72008928Y62730119D02*
X72008928Y63730119D01*
X71913690Y63587261D01*
X71818452Y63492023D01*
X71723214Y63444404D01*
X72627976Y63730119D02*
X73247023Y63730119D01*
X72913690Y63349166D01*
X73056547Y63349166D01*
X73151785Y63301547D01*
X73199404Y63253928D01*
X73247023Y63158690D01*
X73247023Y62920595D01*
X73199404Y62825357D01*
X73151785Y62777738D01*
X73056547Y62730119D01*
X72770833Y62730119D01*
X72675595Y62777738D01*
X72627976Y62825357D01*
X36290476Y865238D02*
X36433333Y817619D01*
X36671428Y817619D01*
X36766666Y865238D01*
X36814285Y912857D01*
X36861904Y1008095D01*
X36861904Y1103333D01*
X36814285Y1198571D01*
X36766666Y1246190D01*
X36671428Y1293809D01*
X36480952Y1341428D01*
X36385714Y1389047D01*
X36338095Y1436666D01*
X36290476Y1531904D01*
X36290476Y1627142D01*
X36338095Y1722380D01*
X36385714Y1770000D01*
X36480952Y1817619D01*
X36719047Y1817619D01*
X36861904Y1770000D01*
X37195238Y1817619D02*
X37433333Y817619D01*
X37623809Y1531904D01*
X37814285Y817619D01*
X38052380Y1817619D01*
X38957142Y817619D02*
X38385714Y817619D01*
X38671428Y817619D02*
X38671428Y1817619D01*
X38576190Y1674761D01*
X38480952Y1579523D01*
X38385714Y1531904D01*
X39338095Y1722380D02*
X39385714Y1770000D01*
X39480952Y1817619D01*
X39719047Y1817619D01*
X39814285Y1770000D01*
X39861904Y1722380D01*
X39909523Y1627142D01*
X39909523Y1531904D01*
X39861904Y1389047D01*
X39290476Y817619D01*
X39909523Y817619D01*
X50577976Y29440238D02*
X50720833Y29392619D01*
X50958928Y29392619D01*
X51054166Y29440238D01*
X51101785Y29487857D01*
X51149404Y29583095D01*
X51149404Y29678333D01*
X51101785Y29773571D01*
X51054166Y29821190D01*
X50958928Y29868809D01*
X50768452Y29916428D01*
X50673214Y29964047D01*
X50625595Y30011666D01*
X50577976Y30106904D01*
X50577976Y30202142D01*
X50625595Y30297380D01*
X50673214Y30345000D01*
X50768452Y30392619D01*
X51006547Y30392619D01*
X51149404Y30345000D01*
X51482738Y30392619D02*
X51720833Y29392619D01*
X51911309Y30106904D01*
X52101785Y29392619D01*
X52339880Y30392619D01*
X53244642Y29392619D02*
X52673214Y29392619D01*
X52958928Y29392619D02*
X52958928Y30392619D01*
X52863690Y30249761D01*
X52768452Y30154523D01*
X52673214Y30106904D01*
X54197023Y29392619D02*
X53625595Y29392619D01*
X53911309Y29392619D02*
X53911309Y30392619D01*
X53816071Y30249761D01*
X53720833Y30154523D01*
X53625595Y30106904D01*
X50577976Y48490238D02*
X50720833Y48442619D01*
X50958928Y48442619D01*
X51054166Y48490238D01*
X51101785Y48537857D01*
X51149404Y48633095D01*
X51149404Y48728333D01*
X51101785Y48823571D01*
X51054166Y48871190D01*
X50958928Y48918809D01*
X50768452Y48966428D01*
X50673214Y49014047D01*
X50625595Y49061666D01*
X50577976Y49156904D01*
X50577976Y49252142D01*
X50625595Y49347380D01*
X50673214Y49395000D01*
X50768452Y49442619D01*
X51006547Y49442619D01*
X51149404Y49395000D01*
X51482738Y49442619D02*
X51720833Y48442619D01*
X51911309Y49156904D01*
X52101785Y48442619D01*
X52339880Y49442619D01*
X53244642Y48442619D02*
X52673214Y48442619D01*
X52958928Y48442619D02*
X52958928Y49442619D01*
X52863690Y49299761D01*
X52768452Y49204523D01*
X52673214Y49156904D01*
X53863690Y49442619D02*
X53958928Y49442619D01*
X54054166Y49395000D01*
X54101785Y49347380D01*
X54149404Y49252142D01*
X54197023Y49061666D01*
X54197023Y48823571D01*
X54149404Y48633095D01*
X54101785Y48537857D01*
X54054166Y48490238D01*
X53958928Y48442619D01*
X53863690Y48442619D01*
X53768452Y48490238D01*
X53720833Y48537857D01*
X53673214Y48633095D01*
X53625595Y48823571D01*
X53625595Y49061666D01*
X53673214Y49252142D01*
X53720833Y49347380D01*
X53768452Y49395000D01*
X53863690Y49442619D01*
X51054166Y67540238D02*
X51197023Y67492619D01*
X51435119Y67492619D01*
X51530357Y67540238D01*
X51577976Y67587857D01*
X51625595Y67683095D01*
X51625595Y67778333D01*
X51577976Y67873571D01*
X51530357Y67921190D01*
X51435119Y67968809D01*
X51244642Y68016428D01*
X51149404Y68064047D01*
X51101785Y68111666D01*
X51054166Y68206904D01*
X51054166Y68302142D01*
X51101785Y68397380D01*
X51149404Y68445000D01*
X51244642Y68492619D01*
X51482738Y68492619D01*
X51625595Y68445000D01*
X51958928Y68492619D02*
X52197023Y67492619D01*
X52387500Y68206904D01*
X52577976Y67492619D01*
X52816071Y68492619D01*
X53244642Y67492619D02*
X53435119Y67492619D01*
X53530357Y67540238D01*
X53577976Y67587857D01*
X53673214Y67730714D01*
X53720833Y67921190D01*
X53720833Y68302142D01*
X53673214Y68397380D01*
X53625595Y68445000D01*
X53530357Y68492619D01*
X53339880Y68492619D01*
X53244642Y68445000D01*
X53197023Y68397380D01*
X53149404Y68302142D01*
X53149404Y68064047D01*
X53197023Y67968809D01*
X53244642Y67921190D01*
X53339880Y67873571D01*
X53530357Y67873571D01*
X53625595Y67921190D01*
X53673214Y67968809D01*
X53720833Y68064047D01*
X17716666Y-3897261D02*
X17859523Y-3944880D01*
X18097619Y-3944880D01*
X18192857Y-3897261D01*
X18240476Y-3849642D01*
X18288095Y-3754404D01*
X18288095Y-3659166D01*
X18240476Y-3563928D01*
X18192857Y-3516309D01*
X18097619Y-3468690D01*
X17907142Y-3421071D01*
X17811904Y-3373452D01*
X17764285Y-3325833D01*
X17716666Y-3230595D01*
X17716666Y-3135357D01*
X17764285Y-3040119D01*
X17811904Y-2992500D01*
X17907142Y-2944880D01*
X18145238Y-2944880D01*
X18288095Y-2992500D01*
X18621428Y-2944880D02*
X18859523Y-3944880D01*
X19050000Y-3230595D01*
X19240476Y-3944880D01*
X19478571Y-2944880D01*
X20002380Y-3373452D02*
X19907142Y-3325833D01*
X19859523Y-3278214D01*
X19811904Y-3182976D01*
X19811904Y-3135357D01*
X19859523Y-3040119D01*
X19907142Y-2992500D01*
X20002380Y-2944880D01*
X20192857Y-2944880D01*
X20288095Y-2992500D01*
X20335714Y-3040119D01*
X20383333Y-3135357D01*
X20383333Y-3182976D01*
X20335714Y-3278214D01*
X20288095Y-3325833D01*
X20192857Y-3373452D01*
X20002380Y-3373452D01*
X19907142Y-3421071D01*
X19859523Y-3468690D01*
X19811904Y-3563928D01*
X19811904Y-3754404D01*
X19859523Y-3849642D01*
X19907142Y-3897261D01*
X20002380Y-3944880D01*
X20192857Y-3944880D01*
X20288095Y-3897261D01*
X20335714Y-3849642D01*
X20383333Y-3754404D01*
X20383333Y-3563928D01*
X20335714Y-3468690D01*
X20288095Y-3421071D01*
X20192857Y-3373452D01*
X32004166Y24677738D02*
X32147023Y24630119D01*
X32385119Y24630119D01*
X32480357Y24677738D01*
X32527976Y24725357D01*
X32575595Y24820595D01*
X32575595Y24915833D01*
X32527976Y25011071D01*
X32480357Y25058690D01*
X32385119Y25106309D01*
X32194642Y25153928D01*
X32099404Y25201547D01*
X32051785Y25249166D01*
X32004166Y25344404D01*
X32004166Y25439642D01*
X32051785Y25534880D01*
X32099404Y25582500D01*
X32194642Y25630119D01*
X32432738Y25630119D01*
X32575595Y25582500D01*
X32908928Y25630119D02*
X33147023Y24630119D01*
X33337500Y25344404D01*
X33527976Y24630119D01*
X33766071Y25630119D01*
X34051785Y25630119D02*
X34718452Y25630119D01*
X34289880Y24630119D01*
X32004166Y43727738D02*
X32147023Y43680119D01*
X32385119Y43680119D01*
X32480357Y43727738D01*
X32527976Y43775357D01*
X32575595Y43870595D01*
X32575595Y43965833D01*
X32527976Y44061071D01*
X32480357Y44108690D01*
X32385119Y44156309D01*
X32194642Y44203928D01*
X32099404Y44251547D01*
X32051785Y44299166D01*
X32004166Y44394404D01*
X32004166Y44489642D01*
X32051785Y44584880D01*
X32099404Y44632500D01*
X32194642Y44680119D01*
X32432738Y44680119D01*
X32575595Y44632500D01*
X32908928Y44680119D02*
X33147023Y43680119D01*
X33337500Y44394404D01*
X33527976Y43680119D01*
X33766071Y44680119D01*
X34575595Y44680119D02*
X34385119Y44680119D01*
X34289880Y44632500D01*
X34242261Y44584880D01*
X34147023Y44442023D01*
X34099404Y44251547D01*
X34099404Y43870595D01*
X34147023Y43775357D01*
X34194642Y43727738D01*
X34289880Y43680119D01*
X34480357Y43680119D01*
X34575595Y43727738D01*
X34623214Y43775357D01*
X34670833Y43870595D01*
X34670833Y44108690D01*
X34623214Y44203928D01*
X34575595Y44251547D01*
X34480357Y44299166D01*
X34289880Y44299166D01*
X34194642Y44251547D01*
X34147023Y44203928D01*
X34099404Y44108690D01*
X32004166Y62777738D02*
X32147023Y62730119D01*
X32385119Y62730119D01*
X32480357Y62777738D01*
X32527976Y62825357D01*
X32575595Y62920595D01*
X32575595Y63015833D01*
X32527976Y63111071D01*
X32480357Y63158690D01*
X32385119Y63206309D01*
X32194642Y63253928D01*
X32099404Y63301547D01*
X32051785Y63349166D01*
X32004166Y63444404D01*
X32004166Y63539642D01*
X32051785Y63634880D01*
X32099404Y63682500D01*
X32194642Y63730119D01*
X32432738Y63730119D01*
X32575595Y63682500D01*
X32908928Y63730119D02*
X33147023Y62730119D01*
X33337500Y63444404D01*
X33527976Y62730119D01*
X33766071Y63730119D01*
X34623214Y63730119D02*
X34147023Y63730119D01*
X34099404Y63253928D01*
X34147023Y63301547D01*
X34242261Y63349166D01*
X34480357Y63349166D01*
X34575595Y63301547D01*
X34623214Y63253928D01*
X34670833Y63158690D01*
X34670833Y62920595D01*
X34623214Y62825357D01*
X34575595Y62777738D01*
X34480357Y62730119D01*
X34242261Y62730119D01*
X34147023Y62777738D01*
X34099404Y62825357D01*
X-1333333Y-8659761D02*
X-1190476Y-8707380D01*
X-952380Y-8707380D01*
X-857142Y-8659761D01*
X-809523Y-8612142D01*
X-761904Y-8516904D01*
X-761904Y-8421666D01*
X-809523Y-8326428D01*
X-857142Y-8278809D01*
X-952380Y-8231190D01*
X-1142857Y-8183571D01*
X-1238095Y-8135952D01*
X-1285714Y-8088333D01*
X-1333333Y-7993095D01*
X-1333333Y-7897857D01*
X-1285714Y-7802619D01*
X-1238095Y-7755000D01*
X-1142857Y-7707380D01*
X-904761Y-7707380D01*
X-761904Y-7755000D01*
X-428571Y-7707380D02*
X-190476Y-8707380D01*
X0Y-7993095D01*
X190476Y-8707380D01*
X428571Y-7707380D01*
X1238095Y-8040714D02*
X1238095Y-8707380D01*
X1000000Y-7659761D02*
X761904Y-8374047D01*
X1380952Y-8374047D01*
X12954166Y19915238D02*
X13097023Y19867619D01*
X13335119Y19867619D01*
X13430357Y19915238D01*
X13477976Y19962857D01*
X13525595Y20058095D01*
X13525595Y20153333D01*
X13477976Y20248571D01*
X13430357Y20296190D01*
X13335119Y20343809D01*
X13144642Y20391428D01*
X13049404Y20439047D01*
X13001785Y20486666D01*
X12954166Y20581904D01*
X12954166Y20677142D01*
X13001785Y20772380D01*
X13049404Y20820000D01*
X13144642Y20867619D01*
X13382738Y20867619D01*
X13525595Y20820000D01*
X13858928Y20867619D02*
X14097023Y19867619D01*
X14287500Y20581904D01*
X14477976Y19867619D01*
X14716071Y20867619D01*
X15001785Y20867619D02*
X15620833Y20867619D01*
X15287500Y20486666D01*
X15430357Y20486666D01*
X15525595Y20439047D01*
X15573214Y20391428D01*
X15620833Y20296190D01*
X15620833Y20058095D01*
X15573214Y19962857D01*
X15525595Y19915238D01*
X15430357Y19867619D01*
X15144642Y19867619D01*
X15049404Y19915238D01*
X15001785Y19962857D01*
X12954166Y38965238D02*
X13097023Y38917619D01*
X13335119Y38917619D01*
X13430357Y38965238D01*
X13477976Y39012857D01*
X13525595Y39108095D01*
X13525595Y39203333D01*
X13477976Y39298571D01*
X13430357Y39346190D01*
X13335119Y39393809D01*
X13144642Y39441428D01*
X13049404Y39489047D01*
X13001785Y39536666D01*
X12954166Y39631904D01*
X12954166Y39727142D01*
X13001785Y39822380D01*
X13049404Y39870000D01*
X13144642Y39917619D01*
X13382738Y39917619D01*
X13525595Y39870000D01*
X13858928Y39917619D02*
X14097023Y38917619D01*
X14287500Y39631904D01*
X14477976Y38917619D01*
X14716071Y39917619D01*
X15049404Y39822380D02*
X15097023Y39870000D01*
X15192261Y39917619D01*
X15430357Y39917619D01*
X15525595Y39870000D01*
X15573214Y39822380D01*
X15620833Y39727142D01*
X15620833Y39631904D01*
X15573214Y39489047D01*
X15001785Y38917619D01*
X15620833Y38917619D01*
X12954166Y58015238D02*
X13097023Y57967619D01*
X13335119Y57967619D01*
X13430357Y58015238D01*
X13477976Y58062857D01*
X13525595Y58158095D01*
X13525595Y58253333D01*
X13477976Y58348571D01*
X13430357Y58396190D01*
X13335119Y58443809D01*
X13144642Y58491428D01*
X13049404Y58539047D01*
X13001785Y58586666D01*
X12954166Y58681904D01*
X12954166Y58777142D01*
X13001785Y58872380D01*
X13049404Y58920000D01*
X13144642Y58967619D01*
X13382738Y58967619D01*
X13525595Y58920000D01*
X13858928Y58967619D02*
X14097023Y57967619D01*
X14287500Y58681904D01*
X14477976Y57967619D01*
X14716071Y58967619D01*
X15620833Y57967619D02*
X15049404Y57967619D01*
X15335119Y57967619D02*
X15335119Y58967619D01*
X15239880Y58824761D01*
X15144642Y58729523D01*
X15049404Y58681904D01*
X2047966Y22137619D02*
X2047966Y21423333D01*
X2000347Y21280476D01*
X1905109Y21185238D01*
X1762252Y21137619D01*
X1667014Y21137619D01*
X2476538Y22042380D02*
X2524157Y22090000D01*
X2619395Y22137619D01*
X2857490Y22137619D01*
X2952728Y22090000D01*
X3000347Y22042380D01*
X3047966Y21947142D01*
X3047966Y21851904D01*
X3000347Y21709047D01*
X2428919Y21137619D01*
X3047966Y21137619D01*
X2047926Y23407619D02*
X2047926Y22693333D01*
X2000307Y22550476D01*
X1905069Y22455238D01*
X1762212Y22407619D01*
X1666974Y22407619D01*
X3047926Y22407619D02*
X2476498Y22407619D01*
X2762212Y22407619D02*
X2762212Y23407619D01*
X2666974Y23264761D01*
X2571736Y23169523D01*
X2476498Y23121904D01*
X116752380Y50441914D02*
X115752380Y50441914D01*
X115752380Y50680009D01*
X115800000Y50822866D01*
X115895238Y50918104D01*
X115990476Y50965723D01*
X116180952Y51013342D01*
X116323809Y51013342D01*
X116514285Y50965723D01*
X116609523Y50918104D01*
X116704761Y50822866D01*
X116752380Y50680009D01*
X116752380Y50441914D01*
X115847619Y51394295D02*
X115800000Y51441914D01*
X115752380Y51537152D01*
X115752380Y51775247D01*
X115800000Y51870485D01*
X115847619Y51918104D01*
X115942857Y51965723D01*
X116038095Y51965723D01*
X116180952Y51918104D01*
X116752380Y51346676D01*
X116752380Y51965723D01*
X115752380Y52584771D02*
X115752380Y52680009D01*
X115800000Y52775247D01*
X115847619Y52822866D01*
X115942857Y52870485D01*
X116133333Y52918104D01*
X116371428Y52918104D01*
X116561904Y52870485D01*
X116657142Y52822866D01*
X116704761Y52775247D01*
X116752380Y52680009D01*
X116752380Y52584771D01*
X116704761Y52489533D01*
X116657142Y52441914D01*
X116561904Y52394295D01*
X116371428Y52346676D01*
X116133333Y52346676D01*
X115942857Y52394295D01*
X115847619Y52441914D01*
X115800000Y52489533D01*
X115752380Y52584771D01*
X97702380Y26629514D02*
X96702380Y26629514D01*
X96702380Y26867609D01*
X96750000Y27010466D01*
X96845238Y27105704D01*
X96940476Y27153323D01*
X97130952Y27200942D01*
X97273809Y27200942D01*
X97464285Y27153323D01*
X97559523Y27105704D01*
X97654761Y27010466D01*
X97702380Y26867609D01*
X97702380Y26629514D01*
X97702380Y28153323D02*
X97702380Y27581895D01*
X97702380Y27867609D02*
X96702380Y27867609D01*
X96845238Y27772371D01*
X96940476Y27677133D01*
X96988095Y27581895D01*
X97702380Y28629514D02*
X97702380Y28819990D01*
X97654761Y28915228D01*
X97607142Y28962847D01*
X97464285Y29058085D01*
X97273809Y29105704D01*
X96892857Y29105704D01*
X96797619Y29058085D01*
X96750000Y29010466D01*
X96702380Y28915228D01*
X96702380Y28724752D01*
X96750000Y28629514D01*
X96797619Y28581895D01*
X96892857Y28534276D01*
X97130952Y28534276D01*
X97226190Y28581895D01*
X97273809Y28629514D01*
X97321428Y28724752D01*
X97321428Y28915228D01*
X97273809Y29010466D01*
X97226190Y29058085D01*
X97130952Y29105704D01*
X97702380Y45679514D02*
X96702380Y45679514D01*
X96702380Y45917609D01*
X96750000Y46060466D01*
X96845238Y46155704D01*
X96940476Y46203323D01*
X97130952Y46250942D01*
X97273809Y46250942D01*
X97464285Y46203323D01*
X97559523Y46155704D01*
X97654761Y46060466D01*
X97702380Y45917609D01*
X97702380Y45679514D01*
X97702380Y47203323D02*
X97702380Y46631895D01*
X97702380Y46917609D02*
X96702380Y46917609D01*
X96845238Y46822371D01*
X96940476Y46727133D01*
X96988095Y46631895D01*
X97130952Y47774752D02*
X97083333Y47679514D01*
X97035714Y47631895D01*
X96940476Y47584276D01*
X96892857Y47584276D01*
X96797619Y47631895D01*
X96750000Y47679514D01*
X96702380Y47774752D01*
X96702380Y47965228D01*
X96750000Y48060466D01*
X96797619Y48108085D01*
X96892857Y48155704D01*
X96940476Y48155704D01*
X97035714Y48108085D01*
X97083333Y48060466D01*
X97130952Y47965228D01*
X97130952Y47774752D01*
X97178571Y47679514D01*
X97226190Y47631895D01*
X97321428Y47584276D01*
X97511904Y47584276D01*
X97607142Y47631895D01*
X97654761Y47679514D01*
X97702380Y47774752D01*
X97702380Y47965228D01*
X97654761Y48060466D01*
X97607142Y48108085D01*
X97511904Y48155704D01*
X97321428Y48155704D01*
X97226190Y48108085D01*
X97178571Y48060466D01*
X97130952Y47965228D01*
X97702380Y64729514D02*
X96702380Y64729514D01*
X96702380Y64967609D01*
X96750000Y65110466D01*
X96845238Y65205704D01*
X96940476Y65253323D01*
X97130952Y65300942D01*
X97273809Y65300942D01*
X97464285Y65253323D01*
X97559523Y65205704D01*
X97654761Y65110466D01*
X97702380Y64967609D01*
X97702380Y64729514D01*
X97702380Y66253323D02*
X97702380Y65681895D01*
X97702380Y65967609D02*
X96702380Y65967609D01*
X96845238Y65872371D01*
X96940476Y65777133D01*
X96988095Y65681895D01*
X96702380Y66586657D02*
X96702380Y67253323D01*
X97702380Y66824752D01*
X116752380Y31391914D02*
X115752380Y31391914D01*
X115752380Y31630009D01*
X115800000Y31772866D01*
X115895238Y31868104D01*
X115990476Y31915723D01*
X116180952Y31963342D01*
X116323809Y31963342D01*
X116514285Y31915723D01*
X116609523Y31868104D01*
X116704761Y31772866D01*
X116752380Y31630009D01*
X116752380Y31391914D01*
X116752380Y32915723D02*
X116752380Y32344295D01*
X116752380Y32630009D02*
X115752380Y32630009D01*
X115895238Y32534771D01*
X115990476Y32439533D01*
X116038095Y32344295D01*
X115752380Y33772866D02*
X115752380Y33582390D01*
X115800000Y33487152D01*
X115847619Y33439533D01*
X115990476Y33344295D01*
X116180952Y33296676D01*
X116561904Y33296676D01*
X116657142Y33344295D01*
X116704761Y33391914D01*
X116752380Y33487152D01*
X116752380Y33677628D01*
X116704761Y33772866D01*
X116657142Y33820485D01*
X116561904Y33868104D01*
X116323809Y33868104D01*
X116228571Y33820485D01*
X116180952Y33772866D01*
X116133333Y33677628D01*
X116133333Y33487152D01*
X116180952Y33391914D01*
X116228571Y33344295D01*
X116323809Y33296676D01*
X78652380Y36154514D02*
X77652380Y36154514D01*
X77652380Y36392609D01*
X77700000Y36535466D01*
X77795238Y36630704D01*
X77890476Y36678323D01*
X78080952Y36725942D01*
X78223809Y36725942D01*
X78414285Y36678323D01*
X78509523Y36630704D01*
X78604761Y36535466D01*
X78652380Y36392609D01*
X78652380Y36154514D01*
X78652380Y37678323D02*
X78652380Y37106895D01*
X78652380Y37392609D02*
X77652380Y37392609D01*
X77795238Y37297371D01*
X77890476Y37202133D01*
X77938095Y37106895D01*
X77652380Y38583085D02*
X77652380Y38106895D01*
X78128571Y38059276D01*
X78080952Y38106895D01*
X78033333Y38202133D01*
X78033333Y38440228D01*
X78080952Y38535466D01*
X78128571Y38583085D01*
X78223809Y38630704D01*
X78461904Y38630704D01*
X78557142Y38583085D01*
X78604761Y38535466D01*
X78652380Y38440228D01*
X78652380Y38202133D01*
X78604761Y38106895D01*
X78557142Y38059276D01*
X78652380Y55204514D02*
X77652380Y55204514D01*
X77652380Y55442609D01*
X77700000Y55585466D01*
X77795238Y55680704D01*
X77890476Y55728323D01*
X78080952Y55775942D01*
X78223809Y55775942D01*
X78414285Y55728323D01*
X78509523Y55680704D01*
X78604761Y55585466D01*
X78652380Y55442609D01*
X78652380Y55204514D01*
X78652380Y56728323D02*
X78652380Y56156895D01*
X78652380Y56442609D02*
X77652380Y56442609D01*
X77795238Y56347371D01*
X77890476Y56252133D01*
X77938095Y56156895D01*
X77985714Y57585466D02*
X78652380Y57585466D01*
X77604761Y57347371D02*
X78319047Y57109276D01*
X78319047Y57728323D01*
X78652380Y74254514D02*
X77652380Y74254514D01*
X77652380Y74492609D01*
X77700000Y74635466D01*
X77795238Y74730704D01*
X77890476Y74778323D01*
X78080952Y74825942D01*
X78223809Y74825942D01*
X78414285Y74778323D01*
X78509523Y74730704D01*
X78604761Y74635466D01*
X78652380Y74492609D01*
X78652380Y74254514D01*
X78652380Y75778323D02*
X78652380Y75206895D01*
X78652380Y75492609D02*
X77652380Y75492609D01*
X77795238Y75397371D01*
X77890476Y75302133D01*
X77938095Y75206895D01*
X77652380Y76111657D02*
X77652380Y76730704D01*
X78033333Y76397371D01*
X78033333Y76540228D01*
X78080952Y76635466D01*
X78128571Y76683085D01*
X78223809Y76730704D01*
X78461904Y76730704D01*
X78557142Y76683085D01*
X78604761Y76635466D01*
X78652380Y76540228D01*
X78652380Y76254514D01*
X78604761Y76159276D01*
X78557142Y76111657D01*
X45314880Y12341914D02*
X44314880Y12341914D01*
X44314880Y12580009D01*
X44362500Y12722866D01*
X44457738Y12818104D01*
X44552976Y12865723D01*
X44743452Y12913342D01*
X44886309Y12913342D01*
X45076785Y12865723D01*
X45172023Y12818104D01*
X45267261Y12722866D01*
X45314880Y12580009D01*
X45314880Y12341914D01*
X45314880Y13865723D02*
X45314880Y13294295D01*
X45314880Y13580009D02*
X44314880Y13580009D01*
X44457738Y13484771D01*
X44552976Y13389533D01*
X44600595Y13294295D01*
X44410119Y14246676D02*
X44362500Y14294295D01*
X44314880Y14389533D01*
X44314880Y14627628D01*
X44362500Y14722866D01*
X44410119Y14770485D01*
X44505357Y14818104D01*
X44600595Y14818104D01*
X44743452Y14770485D01*
X45314880Y14199057D01*
X45314880Y14818104D01*
X59602380Y40916914D02*
X58602380Y40916914D01*
X58602380Y41155009D01*
X58650000Y41297866D01*
X58745238Y41393104D01*
X58840476Y41440723D01*
X59030952Y41488342D01*
X59173809Y41488342D01*
X59364285Y41440723D01*
X59459523Y41393104D01*
X59554761Y41297866D01*
X59602380Y41155009D01*
X59602380Y40916914D01*
X59602380Y42440723D02*
X59602380Y41869295D01*
X59602380Y42155009D02*
X58602380Y42155009D01*
X58745238Y42059771D01*
X58840476Y41964533D01*
X58888095Y41869295D01*
X59602380Y43393104D02*
X59602380Y42821676D01*
X59602380Y43107390D02*
X58602380Y43107390D01*
X58745238Y43012152D01*
X58840476Y42916914D01*
X58888095Y42821676D01*
X59602380Y59966914D02*
X58602380Y59966914D01*
X58602380Y60205009D01*
X58650000Y60347866D01*
X58745238Y60443104D01*
X58840476Y60490723D01*
X59030952Y60538342D01*
X59173809Y60538342D01*
X59364285Y60490723D01*
X59459523Y60443104D01*
X59554761Y60347866D01*
X59602380Y60205009D01*
X59602380Y59966914D01*
X59602380Y61490723D02*
X59602380Y60919295D01*
X59602380Y61205009D02*
X58602380Y61205009D01*
X58745238Y61109771D01*
X58840476Y61014533D01*
X58888095Y60919295D01*
X58602380Y62109771D02*
X58602380Y62205009D01*
X58650000Y62300247D01*
X58697619Y62347866D01*
X58792857Y62395485D01*
X58983333Y62443104D01*
X59221428Y62443104D01*
X59411904Y62395485D01*
X59507142Y62347866D01*
X59554761Y62300247D01*
X59602380Y62205009D01*
X59602380Y62109771D01*
X59554761Y62014533D01*
X59507142Y61966914D01*
X59411904Y61919295D01*
X59221428Y61871676D01*
X58983333Y61871676D01*
X58792857Y61919295D01*
X58697619Y61966914D01*
X58650000Y62014533D01*
X58602380Y62109771D01*
X59602380Y79493104D02*
X58602380Y79493104D01*
X58602380Y79731200D01*
X58650000Y79874057D01*
X58745238Y79969295D01*
X58840476Y80016914D01*
X59030952Y80064533D01*
X59173809Y80064533D01*
X59364285Y80016914D01*
X59459523Y79969295D01*
X59554761Y79874057D01*
X59602380Y79731200D01*
X59602380Y79493104D01*
X59602380Y80540723D02*
X59602380Y80731200D01*
X59554761Y80826438D01*
X59507142Y80874057D01*
X59364285Y80969295D01*
X59173809Y81016914D01*
X58792857Y81016914D01*
X58697619Y80969295D01*
X58650000Y80921676D01*
X58602380Y80826438D01*
X58602380Y80635961D01*
X58650000Y80540723D01*
X58697619Y80493104D01*
X58792857Y80445485D01*
X59030952Y80445485D01*
X59126190Y80493104D01*
X59173809Y80540723D01*
X59221428Y80635961D01*
X59221428Y80826438D01*
X59173809Y80921676D01*
X59126190Y80969295D01*
X59030952Y81016914D01*
X26264880Y8055704D02*
X25264880Y8055704D01*
X25264880Y8293800D01*
X25312500Y8436657D01*
X25407738Y8531895D01*
X25502976Y8579514D01*
X25693452Y8627133D01*
X25836309Y8627133D01*
X26026785Y8579514D01*
X26122023Y8531895D01*
X26217261Y8436657D01*
X26264880Y8293800D01*
X26264880Y8055704D01*
X25693452Y9198561D02*
X25645833Y9103323D01*
X25598214Y9055704D01*
X25502976Y9008085D01*
X25455357Y9008085D01*
X25360119Y9055704D01*
X25312500Y9103323D01*
X25264880Y9198561D01*
X25264880Y9389038D01*
X25312500Y9484276D01*
X25360119Y9531895D01*
X25455357Y9579514D01*
X25502976Y9579514D01*
X25598214Y9531895D01*
X25645833Y9484276D01*
X25693452Y9389038D01*
X25693452Y9198561D01*
X25741071Y9103323D01*
X25788690Y9055704D01*
X25883928Y9008085D01*
X26074404Y9008085D01*
X26169642Y9055704D01*
X26217261Y9103323D01*
X26264880Y9198561D01*
X26264880Y9389038D01*
X26217261Y9484276D01*
X26169642Y9531895D01*
X26074404Y9579514D01*
X25883928Y9579514D01*
X25788690Y9531895D01*
X25741071Y9484276D01*
X25693452Y9389038D01*
X40552380Y36630704D02*
X39552380Y36630704D01*
X39552380Y36868800D01*
X39600000Y37011657D01*
X39695238Y37106895D01*
X39790476Y37154514D01*
X39980952Y37202133D01*
X40123809Y37202133D01*
X40314285Y37154514D01*
X40409523Y37106895D01*
X40504761Y37011657D01*
X40552380Y36868800D01*
X40552380Y36630704D01*
X39552380Y37535466D02*
X39552380Y38202133D01*
X40552380Y37773561D01*
X40552380Y55680704D02*
X39552380Y55680704D01*
X39552380Y55918800D01*
X39600000Y56061657D01*
X39695238Y56156895D01*
X39790476Y56204514D01*
X39980952Y56252133D01*
X40123809Y56252133D01*
X40314285Y56204514D01*
X40409523Y56156895D01*
X40504761Y56061657D01*
X40552380Y55918800D01*
X40552380Y55680704D01*
X39552380Y57109276D02*
X39552380Y56918800D01*
X39600000Y56823561D01*
X39647619Y56775942D01*
X39790476Y56680704D01*
X39980952Y56633085D01*
X40361904Y56633085D01*
X40457142Y56680704D01*
X40504761Y56728323D01*
X40552380Y56823561D01*
X40552380Y57014038D01*
X40504761Y57109276D01*
X40457142Y57156895D01*
X40361904Y57204514D01*
X40123809Y57204514D01*
X40028571Y57156895D01*
X39980952Y57109276D01*
X39933333Y57014038D01*
X39933333Y56823561D01*
X39980952Y56728323D01*
X40028571Y56680704D01*
X40123809Y56633085D01*
X40552380Y74730704D02*
X39552380Y74730704D01*
X39552380Y74968800D01*
X39600000Y75111657D01*
X39695238Y75206895D01*
X39790476Y75254514D01*
X39980952Y75302133D01*
X40123809Y75302133D01*
X40314285Y75254514D01*
X40409523Y75206895D01*
X40504761Y75111657D01*
X40552380Y74968800D01*
X40552380Y74730704D01*
X39552380Y76206895D02*
X39552380Y75730704D01*
X40028571Y75683085D01*
X39980952Y75730704D01*
X39933333Y75825942D01*
X39933333Y76064038D01*
X39980952Y76159276D01*
X40028571Y76206895D01*
X40123809Y76254514D01*
X40361904Y76254514D01*
X40457142Y76206895D01*
X40504761Y76159276D01*
X40552380Y76064038D01*
X40552380Y75825942D01*
X40504761Y75730704D01*
X40457142Y75683085D01*
X7214880Y3293204D02*
X6214880Y3293204D01*
X6214880Y3531300D01*
X6262500Y3674157D01*
X6357738Y3769395D01*
X6452976Y3817014D01*
X6643452Y3864633D01*
X6786309Y3864633D01*
X6976785Y3817014D01*
X7072023Y3769395D01*
X7167261Y3674157D01*
X7214880Y3531300D01*
X7214880Y3293204D01*
X6548214Y4721776D02*
X7214880Y4721776D01*
X6167261Y4483680D02*
X6881547Y4245585D01*
X6881547Y4864633D01*
X21502380Y31868104D02*
X20502380Y31868104D01*
X20502380Y32106200D01*
X20550000Y32249057D01*
X20645238Y32344295D01*
X20740476Y32391914D01*
X20930952Y32439533D01*
X21073809Y32439533D01*
X21264285Y32391914D01*
X21359523Y32344295D01*
X21454761Y32249057D01*
X21502380Y32106200D01*
X21502380Y31868104D01*
X20502380Y32772866D02*
X20502380Y33391914D01*
X20883333Y33058580D01*
X20883333Y33201438D01*
X20930952Y33296676D01*
X20978571Y33344295D01*
X21073809Y33391914D01*
X21311904Y33391914D01*
X21407142Y33344295D01*
X21454761Y33296676D01*
X21502380Y33201438D01*
X21502380Y32915723D01*
X21454761Y32820485D01*
X21407142Y32772866D01*
X21502380Y50918104D02*
X20502380Y50918104D01*
X20502380Y51156200D01*
X20550000Y51299057D01*
X20645238Y51394295D01*
X20740476Y51441914D01*
X20930952Y51489533D01*
X21073809Y51489533D01*
X21264285Y51441914D01*
X21359523Y51394295D01*
X21454761Y51299057D01*
X21502380Y51156200D01*
X21502380Y50918104D01*
X20597619Y51870485D02*
X20550000Y51918104D01*
X20502380Y52013342D01*
X20502380Y52251438D01*
X20550000Y52346676D01*
X20597619Y52394295D01*
X20692857Y52441914D01*
X20788095Y52441914D01*
X20930952Y52394295D01*
X21502380Y51822866D01*
X21502380Y52441914D01*
X21502380Y69968104D02*
X20502380Y69968104D01*
X20502380Y70206200D01*
X20550000Y70349057D01*
X20645238Y70444295D01*
X20740476Y70491914D01*
X20930952Y70539533D01*
X21073809Y70539533D01*
X21264285Y70491914D01*
X21359523Y70444295D01*
X21454761Y70349057D01*
X21502380Y70206200D01*
X21502380Y69968104D01*
X21502380Y71491914D02*
X21502380Y70920485D01*
X21502380Y71206200D02*
X20502380Y71206200D01*
X20645238Y71110961D01*
X20740476Y71015723D01*
X20788095Y70920485D01*
M02*
