M48
; DRILL file {KiCad 5.1.10-88a1d61d58~88~ubuntu18.04.1} date Mon Jul 26 22:40:42 2021
; FORMAT={-:-/ absolute / inch / decimal}
; #@! TF.CreationDate,2021-07-26T22:40:42+03:00
; #@! TF.GenerationSoftware,Kicad,Pcbnew,5.1.10-88a1d61d58~88~ubuntu18.04.1
FMAT,2
INCH
T1C0.0157
T2C0.0394
T3C0.0670
T4C0.1181
T5C0.1260
T6C0.1570
%
G90
G05
T1
X0.1262Y0.9579
X0.2871Y0.1243
X0.4626Y0.1688
X0.7778Y0.4509
X1.1114Y1.5783
X1.2007Y2.2862
X1.292Y0.9581
X1.5768Y0.5658
X1.6028Y1.7572
X1.9118Y1.6716
X2.2013Y2.4776
X2.543Y2.3381
X2.5491Y3.11
X3.1101Y2.5379
X3.1796Y1.1071
X3.3038Y1.925
X3.3268Y1.1612
X3.8495Y1.0618
X3.941Y1.8043
X4.1024Y1.4152
X4.6156Y1.1078
T2
X0.0938Y1.4063
X0.0938Y1.3063
X0.0938Y1.2063
X0.0938Y1.1063
X0.0938Y1.0063
X0.0938Y0.75
X0.0938Y0.65
X0.0938Y0.55
X0.0938Y0.45
T3
X-0.2Y0.0
X-0.2Y0.0
X0.2Y0.0
X0.2Y0.0
X0.3625Y2.625
X0.3625Y2.625
X0.3625Y1.875
X0.3625Y1.875
X0.3625Y1.125
X0.3625Y1.125
X0.55Y0.1875
X0.55Y0.1875
X0.7625Y2.625
X0.7625Y2.625
X0.7625Y1.875
X0.7625Y1.875
X0.7625Y1.125
X0.7625Y1.125
X0.95Y0.1875
X0.95Y0.1875
X1.1125Y2.8125
X1.1125Y2.8125
X1.1125Y2.0625
X1.1125Y2.0625
X1.1125Y1.3125
X1.1125Y1.3125
X1.3Y0.375
X1.3Y0.375
X1.5125Y2.8125
X1.5125Y2.8125
X1.5125Y2.0625
X1.5125Y2.0625
X1.5125Y1.3125
X1.5125Y1.3125
X1.7Y0.375
X1.7Y0.375
X1.8625Y3.0
X1.8625Y3.0
X1.8625Y2.25
X1.8625Y2.25
X1.8625Y1.5
X1.8625Y1.5
X2.2625Y3.0
X2.2625Y3.0
X2.2625Y2.25
X2.2625Y2.25
X2.2625Y1.5
X2.2625Y1.5
X2.6125Y2.8125
X2.6125Y2.8125
X2.6125Y2.0625
X2.6125Y2.0625
X2.6125Y1.3125
X2.6125Y1.3125
X3.0125Y2.8125
X3.0125Y2.8125
X3.0125Y2.0625
X3.0125Y2.0625
X3.0125Y1.3125
X3.0125Y1.3125
X3.3625Y2.4375
X3.3625Y2.4375
X3.3625Y1.6875
X3.3625Y1.6875
X3.3625Y0.9375
X3.3625Y0.9375
X3.7625Y2.4375
X3.7625Y2.4375
X3.7625Y1.6875
X3.7625Y1.6875
X3.7625Y0.9375
X3.7625Y0.9375
X4.1125Y1.875
X4.1125Y1.875
X4.1125Y1.125
X4.1125Y1.125
X4.5125Y1.875
X4.5125Y1.875
X4.5125Y1.125
X4.5125Y1.125
T4
X-0.15Y-0.1
X-0.1Y-0.2
X0.1Y-0.2
X0.15Y-0.1
X0.4125Y2.525
X0.4125Y1.775
X0.4125Y1.025
X0.4625Y2.425
X0.4625Y1.675
X0.4625Y0.925
X0.6Y0.0875
X0.65Y-0.0125
X0.6625Y2.425
X0.6625Y1.675
X0.6625Y0.925
X0.7125Y2.525
X0.7125Y1.775
X0.7125Y1.025
X0.85Y-0.0125
X0.9Y0.0875
X1.1625Y2.7125
X1.1625Y1.9625
X1.1625Y1.2125
X1.2125Y2.6125
X1.2125Y1.8625
X1.2125Y1.1125
X1.35Y0.275
X1.4Y0.175
X1.4125Y2.6125
X1.4125Y1.8625
X1.4125Y1.1125
X1.4625Y2.7125
X1.4625Y1.9625
X1.4625Y1.2125
X1.6Y0.175
X1.65Y0.275
X1.9125Y2.9
X1.9125Y2.15
X1.9125Y1.4
X1.9625Y2.8
X1.9625Y2.05
X1.9625Y1.3
X2.1625Y2.8
X2.1625Y2.05
X2.1625Y1.3
X2.2125Y2.9
X2.2125Y2.15
X2.2125Y1.4
X2.6625Y2.7125
X2.6625Y1.9625
X2.6625Y1.2125
X2.7125Y2.6125
X2.7125Y1.8625
X2.7125Y1.1125
X2.9125Y2.6125
X2.9125Y1.8625
X2.9125Y1.1125
X2.9625Y2.7125
X2.9625Y1.9625
X2.9625Y1.2125
X3.4125Y2.3375
X3.4125Y1.5875
X3.4125Y0.8375
X3.4625Y2.2375
X3.4625Y1.4875
X3.4625Y0.7375
X3.6625Y2.2375
X3.6625Y1.4875
X3.6625Y0.7375
X3.7125Y2.3375
X3.7125Y1.5875
X3.7125Y0.8375
X4.1625Y1.775
X4.1625Y1.025
X4.2125Y1.675
X4.2125Y0.925
X4.4125Y1.675
X4.4125Y0.925
X4.4625Y1.775
X4.4625Y1.025
T5
X0.3632Y0.375
X0.9257Y2.25
X2.4493Y2.4375
X3.9257Y1.3125
T6
X0.0Y0.0
X0.0Y0.0
X0.5625Y2.625
X0.5625Y2.625
X0.5625Y1.875
X0.5625Y1.875
X0.5625Y1.125
X0.5625Y1.125
X0.75Y0.1875
X0.75Y0.1875
X1.3125Y2.8125
X1.3125Y2.8125
X1.3125Y2.0625
X1.3125Y2.0625
X1.3125Y1.3125
X1.3125Y1.3125
X1.5Y0.375
X1.5Y0.375
X2.0625Y3.0
X2.0625Y3.0
X2.0625Y2.25
X2.0625Y2.25
X2.0625Y1.5
X2.0625Y1.5
X2.8125Y2.8125
X2.8125Y2.8125
X2.8125Y2.0625
X2.8125Y2.0625
X2.8125Y1.3125
X2.8125Y1.3125
X3.5625Y2.4375
X3.5625Y2.4375
X3.5625Y1.6875
X3.5625Y1.6875
X3.5625Y0.9375
X3.5625Y0.9375
X4.3125Y1.875
X4.3125Y1.875
X4.3125Y1.125
X4.3125Y1.125
T0
M30
